<svg width="49" height="49" viewBox="0 0 49 49" fill="none" xmlns="http://www.w3.org/2000/svg">
<path d="M24.3406 0.451599C22.1994 5.70013 20.9081 9.13339 18.5241 14.2258C19.9858 15.7748 21.7798 17.5786 24.6934 19.616C21.561 18.3273 19.4244 17.0334 17.8277 15.6909C14.7765 22.0559 9.99696 31.1225 0.296875 48.5481C7.92073 44.1476 13.8306 41.4345 19.3382 40.3993C19.0894 39.329 18.968 38.2331 18.9763 37.1344L18.9855 36.8901C19.1065 32.0068 21.6474 28.2515 24.6572 28.5063C27.667 28.7613 30.0066 32.9293 29.8858 37.8128C29.8629 38.7315 29.7592 39.6157 29.578 40.4355C35.0261 41.5008 40.8726 44.207 48.3933 48.5481C46.9104 45.8184 45.5868 43.3578 44.3228 41.0142C42.3317 39.4714 40.2549 37.4633 36.0187 35.2896C38.9304 36.0458 41.0152 36.9185 42.6402 37.8941C29.7885 13.9708 28.7478 10.792 24.3406 0.451599Z" fill="#1793D1"/>
</svg>
