<svg width="59" height="58" viewBox="0 0 59 58" fill="none" xmlns="http://www.w3.org/2000/svg">
<path d="M20.2308 28.6074L17.0324 30.7267V26.4881L20.2308 28.6074ZM28.0706 23.4163V17.5108L18.0665 24.1307L22.5154 27.0834L28.0706 23.4163ZM40.6478 24.1307L30.6197 17.5108V23.4163L36.1748 27.0834L40.6478 24.1307ZM18.0665 33.0842L28.0706 39.704V33.7985L22.5154 30.1314L18.0665 33.0842ZM30.6197 33.7985V39.704L40.6478 33.0842L36.1748 30.1314L30.6197 33.7985ZM29.3451 25.6071L24.824 28.6074L29.3451 31.6078L33.8662 28.6074L29.3451 25.6071ZM53.3933 28.6074C53.3933 41.7043 42.5716 52.4199 29.3451 52.4199C16.1186 52.4199 5.29688 41.7043 5.29688 28.6074C5.29688 15.5106 16.1186 4.79495 29.3451 4.79495C42.5716 4.79495 53.3933 15.5106 53.3933 28.6074ZM44.2069 24.1307V23.964L44.1829 23.8449L44.1588 23.7259C44.1348 23.7021 44.1348 23.6782 44.1107 23.6306L44.0867 23.583L44.0386 23.4877L44.0145 23.4401L43.9664 23.3687L43.9183 23.2972L43.8462 23.2258L43.7741 23.1782V23.1306L43.6779 23.0829L43.6538 23.0591L30.0666 14.1056C29.8569 13.9658 29.6099 13.8911 29.3571 13.8911C29.1044 13.8911 28.8573 13.9658 28.6477 14.1056L15.0364 23.0591V23.0829L14.9162 23.1306V23.1782L14.844 23.2258L14.7719 23.2972L14.7478 23.3687L14.6757 23.4401L14.6516 23.4877L14.6035 23.583L14.5795 23.6306L14.5314 23.7259V23.8449H14.5073L14.4833 23.964V33.2509L14.5073 33.3699H14.5314V33.489C14.5554 33.5128 14.5554 33.5366 14.5795 33.5842L14.6035 33.6319L14.6516 33.7271L14.6757 33.7747L14.7238 33.8462L14.7719 33.9176L14.844 33.989L14.9162 34.0367V34.0843L15.0124 34.1319L15.0364 34.1557L28.6477 43.133C28.8401 43.2759 29.1046 43.3235 29.3451 43.3235C29.5856 43.3235 29.8501 43.2521 30.0666 43.133L43.6538 34.1557L43.6779 34.1319L43.7741 34.0843V34.0367L43.8462 33.989L43.9183 33.9176L43.9664 33.8462L44.0145 33.7747L44.0386 33.7271L44.0867 33.6319L44.1107 33.5842L44.1588 33.489V33.3699H44.1829L44.2069 33.2509V33.0842V24.1307ZM41.6578 30.7267V26.4881L38.4594 28.6074L41.6578 30.7267Z" fill="#E6E6CE"/>
</svg>
