<svg width="40" height="43" viewBox="0 0 40 43" fill="none" xmlns="http://www.w3.org/2000/svg">
<path d="M39.0378 12.8835C39.0521 12.236 38.8887 11.5969 38.5654 11.0357C38.2263 10.4847 37.7464 10.034 37.1752 9.73011C32.032 6.89015 26.8863 4.05168 21.7381 1.2147C21.1174 0.841284 20.4054 0.646963 19.6811 0.653255C18.9567 0.659547 18.2483 0.866206 17.6341 1.25035C15.5874 2.40742 5.34302 8.03089 2.28917 9.72565C1.70804 10.0176 1.22291 10.4702 0.89142 11.0297C0.55993 11.5892 0.396013 12.2321 0.419142 12.882V30.0212C0.404136 30.6541 0.557939 31.2796 0.864741 31.8333C1.20587 32.4002 1.696 32.8626 2.28175 33.1701C5.33559 34.8649 15.5814 40.4884 17.6282 41.6454C18.2421 42.03 18.9504 42.2372 19.6747 42.244C20.3991 42.2508 21.1112 42.057 21.7322 41.6841C26.8714 38.8411 32.0136 36.0027 37.1588 33.1686C37.7447 32.8607 38.2352 32.3984 38.5773 31.8319C38.8841 31.2781 39.0379 30.6526 39.0229 30.0197V12.8835" fill="#659AD2"/>
<path d="M38.3679 32.1022C38.4456 32.0161 38.5185 31.9259 38.5863 31.8319C38.8931 31.2781 39.0469 30.6526 39.0319 30.0197V12.8835C39.0462 12.236 38.8828 11.5969 38.5596 11.0357C38.5061 10.9481 38.4274 10.8798 38.3665 10.7981L19.7285 21.4509L38.3679 32.1022Z" fill="#00599C"/>
<path d="M38.3677 32.1022L19.7283 21.4509L1.08887 32.1022C1.40405 32.5443 1.81476 32.9099 2.2905 33.1716C5.34434 34.8664 15.5902 40.4899 17.637 41.6469C18.2508 42.0315 18.9591 42.2387 19.6835 42.2455C20.4078 42.2523 21.1199 42.0585 21.7409 41.6855C26.8802 38.8426 32.0224 36.0042 37.1676 33.1701C37.6428 32.9088 38.053 32.5438 38.3677 32.1022Z" fill="#004482"/>
<path d="M25.0759 24.4512C24.4142 25.6279 23.3821 26.5528 22.1403 27.0821C20.8984 27.6113 19.5164 27.7152 18.2094 27.3775C16.9023 27.0399 15.7436 26.2796 14.9135 25.2151C14.0834 24.1505 13.6285 22.8414 13.6195 21.4915C13.6106 20.1416 14.0482 18.8266 14.8642 17.7512C15.6802 16.6758 16.8288 15.9003 18.1312 15.5454C19.4337 15.1904 20.8169 15.2761 22.0656 15.7888C23.3144 16.3016 24.3586 17.2129 25.0357 18.3807L30.4052 15.3016C29.0423 12.9626 26.9482 11.1367 24.4454 10.105C21.9426 9.07326 19.1701 8.89307 16.5548 9.59214C13.9395 10.2912 11.6267 11.8308 9.97246 13.9736C8.31826 16.1165 7.4145 18.7438 7.4004 21.4509C7.39772 23.5975 7.9613 25.7068 9.03427 27.566C10.1208 29.4438 11.6826 31.0025 13.5626 32.0853C15.4426 33.1681 17.5746 33.7368 19.7441 33.7343C21.9137 33.7317 24.0443 33.158 25.9217 32.0707C27.7992 30.9835 29.3573 29.4212 30.4394 27.5407L25.0759 24.4512Z" fill="white"/>
<path d="M31.7244 20.7647H30.349V19.3967H28.975V20.7647H27.5996V22.1356H28.975V23.5021H30.349V22.1356H31.7244V20.7647ZM36.8829 20.7647H35.5075V19.3967H34.1321V20.7647H32.7567V22.1356H34.1321V23.5021H35.5075V22.1356H36.8829V20.7647Z" fill="white"/>
</svg>
