<svg width="52" height="52" viewBox="0 0 52 52" fill="none" xmlns="http://www.w3.org/2000/svg">
<g clip-path="url(#clip0_835_150)">
<path d="M39.2937 0.778076H12.2394C5.64751 0.778076 0.303711 6.12187 0.303711 12.7138V39.768C0.303711 46.36 5.64751 51.7038 12.2394 51.7038H39.2937C45.8856 51.7038 51.2294 46.36 51.2294 39.768V12.7138C51.2294 6.12187 45.8856 0.778076 39.2937 0.778076Z" fill="#0277BD"/>
<path d="M10.997 21.1983L11.5663 27.5524H25.7859V21.1983H10.997ZM25.7857 8.33734H9.85254L10.4302 14.6915H25.7857V8.33734ZM25.7857 44.3118V37.7008L25.7579 37.7081L18.6812 35.7974L18.2288 30.7295H11.8502L12.7404 40.7066L25.7565 44.3199L25.7857 44.3118Z" fill="#EBEBEB"/>
<path d="M33.5881 27.5524L32.8505 35.7932L25.7637 37.7061V44.3167L38.7901 40.7066L38.8856 39.633L40.3787 22.9047L40.5337 21.1983L41.6809 8.33734H25.7637V14.6915H34.7172L34.1392 21.1983H25.7637V27.5524H33.5881Z" fill="white"/>
</g>
<defs>
<clipPath id="clip0_835_150">
<rect width="50.9257" height="50.9257" fill="white" transform="translate(0.303711 0.778076)"/>
</clipPath>
</defs>
</svg>
