<svg width="53" height="52" viewBox="0 0 53 52" fill="none" xmlns="http://www.w3.org/2000/svg">
<g clip-path="url(#clip0_920_6)">
<path d="M24.5905 0.0618617C24.3901 0.0825805 23.7644 0.155299 23.2125 0.21908C20.9873 0.468112 18.464 1.1238 16.2496 2.03908C8.23544 5.32442 2.20379 12.5325 0.539672 20.8001C0.147969 22.7664 0.0527344 23.7324 0.0527344 26.0001C0.0527344 28.9231 0.348789 30.9401 1.13344 33.4889C3.69856 41.8292 10.3766 48.3707 18.8992 50.8971C21.4643 51.6572 23.5313 51.9477 26.4993 51.9477C29.4785 51.9477 31.5343 51.6572 34.1322 50.8874C42.6329 48.3707 49.3001 41.8187 51.8751 33.4568C52.6499 30.9401 52.9459 28.9121 52.9459 26.0001C52.9459 24.7623 52.883 23.3485 52.8084 22.8277C51.9497 16.8168 49.4264 11.7623 45.2195 7.63314C41.0205 3.5357 35.8903 1.05067 29.8905 0.208112C29.064 0.0935492 25.2373 -0.0112633 24.5905 0.0618617ZM15.9519 16.4419C16.515 16.6084 16.7784 16.7644 17.1601 17.1386C17.9026 17.878 18.0723 18.283 18.0723 19.3953C18.0723 20.2285 18.04 20.3841 17.7862 20.8204C17.2976 21.6313 16.1639 22.3804 15.3797 22.4007C14.8277 22.4121 14.8505 22.1724 15.4542 21.5488C16.2596 20.727 16.3759 20.4154 16.3759 19.1873C16.366 18.0023 16.2173 17.5972 15.6559 17.2641C15.1888 16.9834 14.6807 17.0041 13.9383 17.3466C12.0088 18.2525 9.92067 21.2681 9.10538 24.3576C8.02344 28.4758 9.94179 31.7717 13.1007 31.2099C14.0224 31.0433 15.761 30.1707 16.515 29.4833C17.1394 28.9231 17.1394 28.9121 17.2024 28.2158C17.3415 26.7586 18.3895 25.3034 19.7903 24.6274C20.4354 24.3146 20.5956 24.2845 21.4643 24.2845C22.2908 24.2845 22.4817 24.326 22.8846 24.5433C24.1669 25.2624 23.9019 26.9361 22.514 26.9361C21.7086 26.9361 21.2946 26.5299 21.8784 26.3129C22.451 26.1049 22.2374 25.3241 21.5711 25.1478C20.7865 24.9495 19.8954 25.47 19.334 26.4681C18.6549 27.6747 18.6239 29.1104 19.2694 29.7644C19.8954 30.4197 20.6797 29.9009 21.2846 28.412C21.6018 27.6535 22.0577 27.2473 22.5885 27.2473C23.0543 27.2473 23.14 27.5284 22.9376 28.382C22.6403 29.7023 22.8423 30.0451 23.68 29.6405C23.9549 29.515 24.4112 29.2249 24.6861 29.0169L25.2054 28.6107L25.5565 26.811C25.9383 24.794 26.0853 24.5226 26.8699 24.3784C27.6235 24.2419 27.7933 24.6067 27.5167 25.7604L27.3676 26.4064L27.9196 25.8539C29.223 24.5433 30.8242 23.899 31.3757 24.4401C31.6718 24.7306 31.6395 25.0954 31.2159 26.384C31.0151 26.9983 30.7385 27.9664 30.6126 28.5168C30.4217 29.3484 30.4101 29.5467 30.5174 29.682C30.8569 30.0768 31.895 29.6706 32.8171 28.7866L33.3574 28.2678L33.422 27.1124C33.485 25.7811 33.6113 25.3034 33.9719 24.8764C34.3114 24.4815 34.9263 24.1911 35.2547 24.2735C35.583 24.3576 35.583 24.6688 35.287 25.5845C34.8729 26.8427 34.9164 29.7437 35.3404 29.7437C35.5102 29.7437 36.3784 28.85 36.9304 28.1012L37.3428 27.5487L37.0144 27.2172C36.4418 26.6241 36.3043 26.2398 36.3043 25.2717C36.3043 24.5656 36.3577 24.3052 36.537 23.9607C36.8347 23.4212 37.3006 23.0264 37.8521 22.8691C38.4343 22.6928 39.1556 22.9833 39.4516 23.5037C39.7493 24.0339 39.6752 25.2193 39.293 26.0318L39.0181 26.6237H39.3887C39.898 26.6237 40.0988 26.4998 41.011 25.6572C41.488 25.21 42.0395 24.8244 42.4519 24.6371C44.0742 23.8896 45.983 24.2735 46.2998 25.4175C46.5648 26.3332 45.983 26.9775 44.964 26.9044C44.2328 26.8524 44.0953 26.6647 44.5193 26.3129C45.2824 25.6873 44.5193 24.8878 43.4274 25.1783C42.8337 25.3351 42.1658 25.9891 41.8167 26.7492C41.1161 28.2678 41.488 30.0561 42.4941 30.0561C42.897 30.0561 43.6084 29.2757 43.8833 28.5168C44.2117 27.6426 44.9007 27.0921 45.4199 27.29C45.7064 27.3936 45.7276 27.6743 45.5479 28.5583C45.3458 29.5264 45.3147 30.4311 45.4733 30.8467C45.5367 31.0019 45.7276 31.294 45.9085 31.491C46.2464 31.8651 46.258 32.0004 45.9714 32.178C45.834 32.2714 45.6526 32.2304 45.2083 31.9911C44.5934 31.6783 44.063 31.1164 43.8721 30.5863L43.7558 30.2751L43.3318 30.5863C43.0875 30.7528 42.7061 30.9401 42.4842 31.0019C41.6043 31.2306 40.5224 30.6387 40.0147 29.6405C39.8123 29.2546 39.7493 28.122 39.898 27.6852C39.9824 27.4456 39.9824 27.4456 39.6425 27.6121C39.4632 27.706 39.0814 27.8091 38.7854 27.8408C38.2968 27.8936 38.2223 27.9456 37.7357 28.5485C37.0467 29.3895 35.8269 30.5245 35.3288 30.7642C34.2696 31.283 33.9202 31.1371 33.6436 30.0655L33.4527 29.3484L32.9964 29.7437C32.4142 30.2434 31.2482 30.8467 30.5799 30.9925C29.9443 31.1274 29.2653 30.9291 28.9899 30.5131C28.5779 29.8896 28.7154 28.5692 29.3717 26.7903C29.8586 25.47 29.5096 25.4496 28.2802 26.7078C27.368 27.6535 26.9763 28.3296 26.7225 29.3801C26.4575 30.4721 26.1387 30.867 25.419 31.0336C24.9839 31.1274 24.7814 30.867 24.8675 30.2958L24.9304 29.8371L24.5276 30.1085C23.9549 30.4928 23.2336 30.8467 22.7355 30.9816C22.2374 31.1164 21.5807 30.9718 21.4221 30.7004C21.136 30.2231 21.136 30.2231 20.6913 30.5656C19.7257 31.3354 18.3477 31.1164 17.6487 30.0975L17.4251 29.7754L16.7266 30.41C14.7114 32.2194 12.1897 33.0303 10.3236 32.4684C7.94891 31.7624 6.6355 29.7644 6.65662 26.8841C6.66655 23.9928 7.97002 20.946 10.165 18.6892C11.4055 17.4197 12.5715 16.6706 13.759 16.3899C14.6161 16.1819 15.137 16.1924 15.9519 16.4419Z" fill="#00C4CC"/>
<path d="M37.4384 23.8371C37.2052 24.0655 37.291 24.9811 37.5874 25.5637C37.7361 25.8651 37.8947 26.1048 37.9477 26.1048C37.9899 26.1048 38.0851 25.8652 38.1597 25.5731C38.4247 24.4924 37.9477 23.3371 37.4384 23.8371Z" fill="#00C4CC"/>
</g>
<defs>
<clipPath id="clip0_920_6">
<rect width="53" height="52" fill="white"/>
</clipPath>
</defs>
</svg>
