<svg width="101" height="101" viewBox="0 0 101 101" fill="none" xmlns="http://www.w3.org/2000/svg">
<g clip-path="url(#clip0_908_193)">
<path d="M77.3281 0.808838H23.6719C10.5983 0.808838 0 11.3022 0 24.2463V77.3713C0 90.3155 10.5983 100.809 23.6719 100.809H77.3281C90.4017 100.809 101 90.3155 101 77.3713V24.2463C101 11.3022 90.4017 0.808838 77.3281 0.808838Z" fill="#092E20"/>
<path d="M44.4593 20.7307H55.7488V72.469C49.9575 73.5577 45.7057 73.9932 41.0877 73.9932C27.3051 73.9928 20.1211 67.8241 20.1211 55.9928C20.1211 44.5971 27.7454 37.1944 39.5478 37.1944C41.3804 37.1944 42.7731 37.3389 44.4593 37.7745V20.7307ZM44.4593 46.7741C43.14 46.3393 42.0405 46.194 40.6478 46.194C34.9298 46.194 31.6304 49.678 31.6304 55.7745C31.6304 61.7268 34.7831 64.9928 40.5744 64.9928C41.8199 64.9928 42.8469 64.9202 44.4593 64.703V46.7741Z" fill="white"/>
<path d="M73.7089 37.9924V63.9034C73.7089 72.8315 73.0492 77.1135 71.0699 80.8155C69.2369 84.3725 66.8176 86.6221 61.8327 89.0901L51.3496 84.1542C56.3345 81.8319 58.7538 79.8003 60.2928 76.678C61.9061 73.4846 62.4198 69.7827 62.4198 60.0569V37.9921L73.7089 37.9924ZM62.4198 20.7901H73.7089V32.2581H62.4198V20.7901Z" fill="white"/>
</g>
<defs>
<clipPath id="clip0_908_193">
<rect width="101" height="100" fill="white" transform="translate(0 0.808838)"/>
</clipPath>
</defs>
</svg>
