<svg width="145" height="104" viewBox="0 0 145 104" fill="none" xmlns="http://www.w3.org/2000/svg">
<g clip-path="url(#clip0_908_215)">
<path d="M141.332 39.6626C138.089 37.4356 130.658 36.6004 124.849 37.7139C124.174 32.1464 121.066 27.2753 115.661 22.9604L112.554 20.7334L110.392 23.9348C107.69 28.1104 106.339 33.9564 106.744 39.524C106.879 41.472 107.555 44.9518 109.581 48.0139C107.69 49.1274 103.772 50.5193 98.638 50.5193H0.954222L0.684222 51.6329C-0.261903 57.1999 -0.261903 74.598 10.8171 87.9596C19.1938 98.1198 31.624 103.27 47.9719 103.27C83.37 103.27 109.581 86.4279 121.877 55.9472C126.74 56.0864 137.144 55.9472 142.413 45.508C142.548 45.2296 142.818 44.6728 143.764 42.5856L144.305 41.472L141.332 39.6626ZM79.0467 0.412903H64.1854V14.3313H79.0467V0.412903ZM79.0467 17.115H64.1854V31.0334H79.0467V17.115ZM61.4826 17.115H46.6213V31.0334H61.4826V17.115ZM43.9185 17.115H29.0567V31.0334H43.9185V17.115ZM26.3545 33.8172H11.4927V47.7356H26.3539L26.3545 33.8172ZM43.9185 33.8172H29.0567V47.7356H43.9185V33.8172ZM61.4826 33.8172H46.6213V47.7356H61.4826V33.8172ZM79.0472 33.8172H64.1848V47.7356H79.0472V33.8172ZM96.6113 33.8172H81.7489V47.7356H96.6113V33.8172Z" fill="#2396ED"/>
</g>
<defs>
<clipPath id="clip0_908_215">
<rect width="144" height="103" fill="white" transform="translate(0.304688 0.412903)"/>
</clipPath>
</defs>
</svg>
