<svg width="94" height="29" viewBox="0 0 94 29" fill="none" xmlns="http://www.w3.org/2000/svg">
<g clip-path="url(#clip0_835_181)">
<path d="M0.691578 22.3558V11.7527H13.6648V11.1324H0.691578V1.45935H14.485V0.839325H0.0839844V22.9758H14.6064V22.3558H0.691578ZM26.3037 7.03994L20.9262 14.2638L15.6699 7.04013H14.8799L20.5615 14.729L14.3329 22.9756H15.0621L20.9258 15.1937L26.8199 22.9756H27.5794L21.3208 14.7287L27.0326 7.03976L26.3037 7.03994ZM29.4026 28.4325V18.5115H29.4633C29.828 19.9583 30.547 21.1209 31.6205 21.9994C32.694 22.8777 34.0611 23.3171 35.7219 23.3171C36.7954 23.3171 37.7475 23.0949 38.5779 22.6505C39.4084 22.2062 40.102 21.6016 40.6591 20.8368C41.216 20.072 41.6414 19.1833 41.9352 18.1704C42.2288 17.1578 42.3758 16.0932 42.3758 14.9773C42.3758 13.7783 42.2237 12.6725 41.9199 11.6598C41.6161 10.647 41.1755 9.76846 40.5984 9.02451C40.0211 8.28037 39.3223 7.70147 38.5019 7.28836C37.6817 6.87489 36.755 6.66815 35.7219 6.66815C34.932 6.66815 34.1979 6.78706 33.5193 7.02469C32.8408 7.2625 32.2383 7.59819 31.7117 8.03232C31.182 8.46978 30.7209 8.9873 30.3444 9.56694C29.9597 10.1561 29.6659 10.802 29.4633 11.5048H29.4026V7.03994H28.795V28.4325H29.4026ZM35.7219 22.7278C33.8182 22.7278 32.2888 22.0612 31.1344 20.7281C29.9799 19.395 29.4026 17.4778 29.4026 14.9769C29.4026 13.9434 29.5444 12.9616 29.828 12.0316C30.1115 11.1016 30.5217 10.285 31.0583 9.58238C31.5952 8.87955 32.2586 8.32149 33.0483 7.9082C33.8383 7.49473 34.7296 7.28799 35.7219 7.28799C36.7347 7.28799 37.6209 7.49473 38.3804 7.9082C39.1399 8.32149 39.7679 8.88476 40.2641 9.59783C40.7603 10.3109 41.135 11.1274 41.3883 12.047C41.6414 12.9668 41.768 13.9434 41.768 14.9769C41.768 15.9071 41.6516 16.8321 41.4186 17.7517C41.1857 18.6716 40.8261 19.4983 40.34 20.2322C39.854 20.9658 39.2313 21.5651 38.4716 22.0303C37.7119 22.4953 36.7954 22.7278 35.7219 22.7278ZM45.7177 22.9758V13.9538C45.7177 13.0857 45.8391 12.2381 46.0824 11.4116C46.3253 10.5848 46.7 9.85611 47.2064 9.22585C47.7128 8.5954 48.3558 8.09931 49.1357 7.73757C49.9154 7.37582 50.8421 7.22603 51.9156 7.28799V6.66797C50.9838 6.6475 50.1687 6.75059 49.4699 6.97798C48.771 7.20537 48.1685 7.51538 47.6621 7.9082C47.1557 8.30084 46.7507 8.76064 46.4469 9.28781C46.1434 9.81415 45.9181 10.3836 45.7784 10.9774H45.7177V7.03994H45.1101V22.976L45.7177 22.9758ZM52.6751 15.1319H65.7393C65.78 14.0364 65.6736 12.9825 65.4204 11.9696C65.1673 10.9568 64.7621 10.0576 64.2052 9.27237C63.6481 8.48692 62.9291 7.85647 62.048 7.38103C61.1668 6.90559 60.1187 6.66797 58.9035 6.66797C58.0324 6.66797 57.1817 6.85405 56.3513 7.22621C55.5209 7.59819 54.7917 8.14062 54.1638 8.85369C53.536 9.56675 53.0296 10.44 52.6449 11.4737C52.2601 12.507 52.0675 13.6851 52.0675 15.008C52.0675 16.1861 52.1992 17.2867 52.4625 18.3098C52.7258 19.3329 53.1308 20.2218 53.6777 20.9762C54.2247 21.7305 54.9286 22.3145 55.7893 22.7278C56.65 23.1412 57.6881 23.3376 58.9035 23.3169C60.6858 23.3169 62.1847 22.8052 63.3999 21.7823C64.6153 20.759 65.3343 19.3174 65.5571 17.4572H64.9495C64.6862 19.2142 64.0126 20.5318 62.9291 21.4101C61.8454 22.2886 60.4834 22.7278 58.8426 22.7278C57.7286 22.7278 56.7868 22.5314 56.0171 22.1388C55.2475 21.7462 54.6195 21.2086 54.1334 20.5266C53.6474 19.8444 53.2878 19.0435 53.055 18.1237C52.8219 17.2041 52.6954 16.2067 52.6751 15.1319ZM65.1317 14.5119H52.6753C52.7358 13.3958 52.9384 12.3933 53.2827 11.5046C53.6272 10.6157 54.0778 9.85611 54.6349 9.22585C55.1918 8.5954 55.84 8.11494 56.5793 7.78409C57.3185 7.45342 58.1136 7.28799 58.9642 7.28799C59.977 7.28799 60.868 7.47928 61.6379 7.86168C62.4074 8.24408 63.0505 8.76604 63.5671 9.42738C64.0835 10.0887 64.4734 10.8587 64.7367 11.737C65 12.6155 65.1317 13.5405 65.1317 14.5119ZM78.348 11.7527H78.9556C78.9556 9.97501 78.4492 8.68323 77.4366 7.87713C76.4236 7.07102 75.0463 6.66797 73.3045 6.66797C72.3322 6.66797 71.512 6.79208 70.8435 7.04013C70.1752 7.28799 69.6283 7.60842 69.2029 8.00106C68.7776 8.39369 68.4738 8.82782 68.2915 9.30326C68.1091 9.7787 68.018 10.2335 68.018 10.6674C68.018 11.5355 68.1699 12.2279 68.4738 12.7447C68.7776 13.2614 69.2536 13.6645 69.9016 13.9538C70.3473 14.1604 70.8535 14.3464 71.4208 14.5121C71.9879 14.6773 72.6462 14.853 73.3957 15.0389C74.064 15.2045 74.7223 15.3697 75.3705 15.535C76.0186 15.7004 76.5908 15.9226 77.087 16.2015C77.5834 16.4806 77.9884 16.8372 78.3024 17.2713C78.6162 17.7052 78.7732 18.2737 78.7732 18.9764C78.7732 19.6585 78.6164 20.2372 78.3024 20.7125C77.991 21.1855 77.5813 21.5825 77.1023 21.8753C76.6162 22.1749 76.0742 22.3919 75.4768 22.5262C74.8793 22.6606 74.297 22.7278 73.7299 22.7278C71.8867 22.7278 70.4739 22.3093 69.4915 21.4723C68.5092 20.6351 68.0181 19.3174 68.0181 17.5191H67.4104C67.4104 19.5242 67.9421 20.9916 69.0054 21.9218C70.0689 22.8519 71.6436 23.3169 73.7299 23.3169C74.3982 23.3169 75.0717 23.2393 75.7504 23.0843C76.4287 22.9293 77.0365 22.6762 77.5732 22.3247C78.1053 21.9782 78.5522 21.5115 78.8795 20.9607C79.2138 20.4025 79.381 19.7205 79.381 18.9144C79.381 18.1496 79.234 17.5296 78.9404 17.0541C78.6467 16.5789 78.2619 16.1861 77.7858 15.876C77.3098 15.566 76.7732 15.3232 76.1756 15.1475C75.5747 14.9708 74.9721 14.8002 74.3678 14.6358C73.6241 14.4367 72.8798 14.2404 72.1347 14.0469C71.4968 13.8814 70.9044 13.6851 70.3575 13.4577C69.8309 13.2303 69.4106 12.9049 69.0966 12.4812C68.7826 12.0575 68.6257 11.4529 68.6257 10.6674C68.6257 10.5228 68.6662 10.2644 68.7472 9.89239C68.8281 9.52023 69.0207 9.14304 69.3245 8.76064C69.6283 8.37843 70.094 8.03734 70.722 7.73757C71.3499 7.43797 72.2108 7.28799 73.3045 7.28799C74.054 7.28799 74.7374 7.3708 75.3552 7.53604C75.973 7.70147 76.5048 7.96496 76.9502 8.3267C77.3959 8.68844 77.7402 9.14825 77.9833 9.70631C78.2263 10.2646 78.348 10.9465 78.348 11.7527ZM92.4147 11.7527H93.0223C93.0223 9.97501 92.5161 8.68323 91.5033 7.87713C90.4905 7.07102 89.1132 6.66797 87.3712 6.66797C86.3991 6.66797 85.5787 6.79208 84.9104 7.04013C84.2419 7.28799 83.695 7.60842 83.2698 8.00106C82.8444 8.39369 82.5406 8.82782 82.3582 9.30326C82.1759 9.7787 82.0849 10.2335 82.0849 10.6674C82.0849 11.5355 82.2368 12.2279 82.5408 12.7447C82.8444 13.2614 83.3205 13.6645 83.9686 13.9538C84.4142 14.1604 84.9204 14.3464 85.4875 14.5121C86.0547 14.6773 86.713 14.853 87.4624 15.0389C88.1309 15.2045 88.7892 15.3697 89.4373 15.535C90.0855 15.7004 90.6576 15.9226 91.1539 16.2015C91.6501 16.4806 92.0553 16.8372 92.3691 17.2713C92.6831 17.7052 92.8401 18.2737 92.8401 18.9764C92.8401 19.6585 92.6831 20.2372 92.3691 20.7125C92.0578 21.1854 91.6481 21.5825 91.1693 21.8753C90.6829 22.1749 90.1412 22.3919 89.5436 22.5262C88.9462 22.6606 88.3638 22.7278 87.7967 22.7278C85.9535 22.7278 84.5408 22.3093 83.5585 21.4723C82.576 20.6351 82.0849 19.3174 82.0849 17.5191H81.4773C81.4773 19.5242 82.0088 20.9916 83.0723 21.9218C84.1356 22.8519 85.7104 23.3169 87.7967 23.3169C88.4652 23.3169 89.1386 23.2393 89.8171 23.0843C90.4955 22.9293 91.1032 22.6762 91.6401 22.3247C92.1722 21.9782 92.6191 21.5115 92.9464 20.9607C93.2807 20.4025 93.4477 19.7205 93.4477 18.9144C93.4477 18.1496 93.3009 17.5296 93.0072 17.0541C92.7136 16.5789 92.3288 16.1861 91.8527 15.876C91.3768 15.566 90.8399 15.3232 90.2425 15.1475C89.6416 14.9708 89.039 14.8002 88.4347 14.6358C87.6911 14.4367 86.9467 14.2404 86.2016 14.0469C85.5636 13.8814 84.9711 13.6851 84.4243 13.4577C83.8976 13.2303 83.4773 12.9049 83.1635 12.4812C82.8495 12.0575 82.6925 11.4529 82.6925 10.6674C82.6925 10.5228 82.733 10.2644 82.8141 9.89239C82.8951 9.52023 83.0876 9.14304 83.3913 8.76064C83.695 8.37843 84.161 8.03734 84.7888 7.73757C85.4168 7.43797 86.2775 7.28799 87.3714 7.28799C88.1209 7.28799 88.8043 7.3708 89.4221 7.53604C90.0399 7.70147 90.5715 7.96496 91.0172 8.3267C91.4628 8.68844 91.8071 9.14825 92.0502 9.70631C92.2933 10.2646 92.4147 10.9465 92.4147 11.7527Z" fill="#E6E6CE"/>
</g>
<defs>
<clipPath id="clip0_835_181">
<rect width="93.3637" height="27.7262" fill="white" transform="translate(0.0839844 0.839325)"/>
</clipPath>
</defs>
</svg>
