<svg width="30" height="44" viewBox="0 0 30 44" fill="none" xmlns="http://www.w3.org/2000/svg">
<g clip-path="url(#clip0_835_221)">
<path d="M7.72117 43.6822C11.7816 43.6822 15.0771 40.429 15.0771 36.4206V29.159H7.72117C3.66069 29.159 0.365234 32.4122 0.365234 36.4206C0.365234 40.429 3.66069 43.6822 7.72117 43.6822Z" fill="#0ACF83"/>
<path d="M0.365234 21.8973C0.365234 17.8889 3.66069 14.6357 7.72117 14.6357H15.0771V29.159H7.72117C3.66069 29.159 0.365234 25.9058 0.365234 21.8973Z" fill="#A259FF"/>
<path d="M0.365234 7.37408C0.365234 3.36567 3.66069 0.112457 7.72117 0.112457H15.0771V14.6357H7.72117C3.66069 14.6357 0.365234 11.3825 0.365234 7.37408Z" fill="#F24E1E"/>
<path d="M15.0771 0.112457H22.4331C26.4936 0.112457 29.789 3.36567 29.789 7.37408C29.789 11.3825 26.4936 14.6357 22.4331 14.6357H15.0771V0.112457Z" fill="#FF7262"/>
<path d="M29.789 21.8973C29.789 25.9058 26.4936 29.159 22.4331 29.159C18.3726 29.159 15.0771 25.9058 15.0771 21.8973C15.0771 17.8889 18.3726 14.6357 22.4331 14.6357C26.4936 14.6357 29.789 17.8889 29.789 21.8973Z" fill="#1ABCFE"/>
</g>
<defs>
<clipPath id="clip0_835_221">
<rect width="29.4237" height="43.5697" fill="white" transform="translate(0.365234 0.112457)"/>
</clipPath>
</defs>
</svg>
