<svg width="18" height="25" viewBox="0 0 18 25" fill="none" xmlns="http://www.w3.org/2000/svg">
<g clip-path="url(#clip0_998_8)">
<path d="M0 19.5317L0.149273 19.3285L7.20893 6.30186L7.22384 6.16395L4.11187 0.479369C3.85102 0.00319832 3.11695 0.123609 3.03145 0.656668L0 19.5317Z" fill="#FFC24A"/>
<path d="M0.0878906 19.3766L0.200742 19.1625L7.1865 6.27242L4.0822 0.564728C3.82423 0.0935482 3.16905 0.213685 3.0844 0.741138L0.0878906 19.3766Z" fill="#FFA712"/>
<g filter="url(#filter0_i_998_8)">
<path d="M0.0878906 19.3766L0.200742 19.1625L7.1865 6.27242L4.0822 0.564728C3.82423 0.0935482 3.16905 0.213685 3.0844 0.741138L0.0878906 19.3766Z" fill="black"/>
</g>
<path d="M9.49231 10.4639L11.8095 8.15622L9.4916 3.85331C9.27159 3.446 8.65727 3.44477 8.43959 3.85331L7.20117 6.14986V6.34541L9.49231 10.4639Z" fill="#F4BD62"/>
<path d="M9.45197 10.3676L11.7047 8.12407L9.45197 3.95265C9.23808 3.55668 8.7184 3.51518 8.50676 3.91231L7.26187 6.24455L7.22461 6.36379L9.45197 10.3676Z" fill="#FFA50E"/>
<g filter="url(#filter1_i_998_8)">
<path d="M9.45197 10.3676L11.7047 8.12407L9.45197 3.95265C9.23808 3.55668 8.7184 3.51518 8.50676 3.91231L7.26187 6.24455L7.22461 6.36379L9.45197 10.3676Z" fill="black"/>
</g>
<path d="M0 19.5316L0.0676406 19.4654L0.313453 19.3683L9.34699 10.6162L9.46146 10.3132L7.20795 6.13721L0 19.5316Z" fill="#F6820C"/>
<path d="M9.78195 23.9456L17.9575 19.5116L15.6229 5.52905C15.5498 5.09158 14.9979 4.91865 14.6759 5.2323L0 19.5317L8.12869 23.9453C8.38136 24.0824 8.6659 24.1544 8.95527 24.1545C9.24464 24.1546 9.52922 24.0826 9.78195 23.9456Z" fill="#FDE068"/>
<path d="M17.8834 19.4744L15.5665 5.59803C15.494 5.16384 15.035 4.98422 14.7155 5.29553L0.0898438 19.5045L8.1293 23.8743C8.38003 24.0104 8.66241 24.0819 8.94959 24.082C9.23676 24.0821 9.51918 24.0107 9.76998 23.8747L17.8834 19.4744Z" fill="#FCCA3F"/>
<path d="M9.7818 23.815C9.52908 23.952 9.24452 24.0239 8.95516 24.0238C8.66581 24.0238 8.38128 23.9518 8.12862 23.8146L0.0653906 19.4645L0 19.5317L8.12862 23.9453C8.38129 24.0824 8.66583 24.1545 8.9552 24.1545C9.24457 24.1546 9.52914 24.0827 9.78187 23.9456L17.9575 19.5116L17.9374 19.3918L9.7818 23.815Z" fill="#EEAB37"/>
</g>
<defs>
<filter id="filter0_i_998_8" x="0.0878906" y="0.270264" width="7.09766" height="19.1064" filterUnits="userSpaceOnUse" color-interpolation-filters="sRGB">
<feFlood flood-opacity="0" result="BackgroundImageFix"/>
<feBlend mode="normal" in="SourceGraphic" in2="BackgroundImageFix" result="shape"/>
<feColorMatrix in="SourceAlpha" type="matrix" values="0 0 0 0 0 0 0 0 0 0 0 0 0 0 0 0 0 0 127 0" result="hardAlpha"/>
<feOffset/>
<feGaussianBlur stdDeviation="17.5"/>
<feComposite in2="hardAlpha" operator="arithmetic" k2="-1" k3="1"/>
<feColorMatrix type="matrix" values="0 0 0 0 0 0 0 0 0 0 0 0 0 0 0 0 0 0 0.06 0"/>
<feBlend mode="normal" in2="shape" result="effect1_innerShadow_998_8"/>
</filter>
<filter id="filter1_i_998_8" x="7.22461" y="-3.36572" width="5.48047" height="13.7334" filterUnits="userSpaceOnUse" color-interpolation-filters="sRGB">
<feFlood flood-opacity="0" result="BackgroundImageFix"/>
<feBlend mode="normal" in="SourceGraphic" in2="BackgroundImageFix" result="shape"/>
<feColorMatrix in="SourceAlpha" type="matrix" values="0 0 0 0 0 0 0 0 0 0 0 0 0 0 0 0 0 0 127 0" result="hardAlpha"/>
<feOffset dx="1" dy="-9"/>
<feGaussianBlur stdDeviation="3.5"/>
<feComposite in2="hardAlpha" operator="arithmetic" k2="-1" k3="1"/>
<feColorMatrix type="matrix" values="0 0 0 0 0 0 0 0 0 0 0 0 0 0 0 0 0 0 0.09 0"/>
<feBlend mode="normal" in2="shape" result="effect1_innerShadow_998_8"/>
</filter>
<clipPath id="clip0_998_8">
<rect width="18" height="24" fill="white" transform="translate(0 0.181396)"/>
</clipPath>
</defs>
</svg>
