<svg width="59" height="60" viewBox="0 0 59 60" fill="none" xmlns="http://www.w3.org/2000/svg">
<g clip-path="url(#clip0_971_10)">
<path d="M57.8861 27.3493L32.1252 1.5921C31.7725 1.23921 31.3537 0.959274 30.8928 0.768283C30.4318 0.577292 29.9378 0.478989 29.4389 0.478989C28.9399 0.478989 28.4459 0.577292 27.9849 0.768283C27.524 0.959274 27.1052 1.23921 26.7525 1.5921L21.4056 6.93897L28.1906 13.724C28.9908 13.4508 29.8517 13.408 30.6751 13.6006C31.4984 13.7932 32.251 14.2134 32.847 14.8132C33.4429 15.4131 33.8583 16.1683 34.0456 16.9929C34.2329 17.8174 34.1846 18.678 33.9063 19.4765L40.4442 26.0181C41.4115 25.6775 42.4659 25.6765 43.4338 26.0152C44.4018 26.3538 45.2255 27.0121 45.7695 27.8814C46.3134 28.7507 46.5451 29.7794 46.4263 30.798C46.3076 31.8166 45.8456 32.7644 45.1163 33.4853C44.378 34.2281 43.4047 34.6916 42.3626 34.7965C41.3206 34.9014 40.2744 34.6413 39.4029 34.0605C38.5313 33.4798 37.8885 32.6144 37.5841 31.6123C37.2797 30.6102 37.3326 29.5335 37.7339 28.5662L31.6385 22.467V38.5187C32.565 38.9773 33.3063 39.7397 33.7389 40.6786C34.1715 41.6175 34.2692 42.6764 34.0158 43.6787C33.7624 44.6809 33.1731 45.566 32.3462 46.1865C31.5193 46.807 30.5047 47.1253 29.4715 47.0884C28.4384 47.0515 27.4491 46.6616 26.6685 45.9837C25.888 45.3059 25.3633 44.381 25.1821 43.3632C25.0008 42.3454 25.1738 41.2962 25.6723 40.3905C26.1708 39.4848 26.9646 38.7773 27.9215 38.386V22.1868C27.3694 21.9606 26.8676 21.6273 26.4449 21.2063C26.0222 20.7852 25.6871 20.2846 25.4588 19.7334C25.2305 19.1822 25.1136 18.5913 25.1147 17.9947C25.1159 17.3981 25.2351 16.8076 25.4656 16.2573L18.7801 9.56816L1.11702 27.2313C0.764128 27.584 0.484192 28.0028 0.293201 28.4637C0.10221 28.9246 0.00390625 29.4187 0.00390625 29.9176C0.00390625 30.4166 0.10221 30.9106 0.293201 31.3715C0.484192 31.8325 0.764128 32.2513 1.11702 32.604L26.8779 58.3648C27.2306 58.7177 27.6494 58.9977 28.1103 59.1887C28.5713 59.3797 29.0653 59.478 29.5642 59.478C30.0632 59.478 30.5572 59.3797 31.0181 59.1887C31.4791 58.9977 31.8979 58.7177 32.2506 58.3648L57.8898 32.7257C58.2427 32.3729 58.5226 31.9542 58.7136 31.4932C58.9046 31.0323 59.0029 30.5383 59.0029 30.0393C59.0029 29.5404 58.9046 29.0463 58.7136 28.5854C58.5226 28.1245 58.2427 27.7057 57.8898 27.353" fill="#F5F5F5"/>
</g>
<defs>
<clipPath id="clip0_971_10">
<rect width="59" height="59" fill="white" transform="translate(0 0.478485)"/>
</clipPath>
</defs>
</svg>
