<svg width="87" height="18" viewBox="0 0 87 18" fill="none" xmlns="http://www.w3.org/2000/svg">
<path d="M50.7835 13.0452H49.7227V1.17974H53.2992C56.2199 1.17974 57.2197 2.88622 57.2197 4.73794C57.2197 6.58965 56.2163 8.29613 53.2992 8.29613H50.787L50.7835 13.0452ZM50.7835 7.30129H53.4354C53.7836 7.35398 54.1391 7.325 54.4745 7.21657C54.8099 7.10815 55.1163 6.92318 55.3701 6.6759C55.6238 6.42863 55.8182 6.12565 55.9382 5.79029C56.0582 5.45493 56.1006 5.09615 56.0622 4.74156C56.1011 4.38705 56.0591 4.02822 55.9396 3.69271C55.8201 3.3572 55.6261 3.05395 55.3727 2.80633C55.1193 2.55871 54.8132 2.37331 54.4779 2.26441C54.1427 2.15551 53.7872 2.12603 53.4389 2.17821H50.7835V7.30129ZM61.108 5.95789C60.3109 5.95218 59.519 6.08734 58.7678 6.35728V5.406C59.5139 5.11381 60.3081 4.9684 61.108 4.97757C63.4517 4.97757 64.0609 6.05592 64.0609 7.63532V13.0452H63.4517L63.2152 12.4135C62.53 12.9175 61.7074 13.1941 60.8607 13.205C60.5079 13.2604 60.1474 13.2346 59.8058 13.1295C59.4642 13.0244 59.1504 12.8426 58.8877 12.5977C58.625 12.3528 58.4201 12.0511 58.2883 11.715C58.1565 11.3788 58.1011 11.0169 58.1264 10.6562C58.1264 9.31276 58.861 8.31428 60.9073 8.18721L62.9679 8.06013V7.61717C62.9679 6.46257 62.5629 5.95789 61.108 5.95789ZM60.8285 9.04408C59.7175 9.153 59.2337 9.74119 59.2337 10.6598C59.2337 11.3714 59.4057 12.2247 60.8894 12.2247C61.6282 12.2242 62.3508 12.0046 62.9679 11.5929V8.84075L60.8285 9.04408ZM67.494 10.8341C67.3276 10.9839 67.2217 11.1908 67.1966 11.415C67.1966 11.8144 67.3865 11.9887 67.7915 12.0322L70.4434 12.3517C71.9127 12.5115 72.5864 13.0961 72.5864 14.4721C72.5864 16.4037 70.6799 17.1589 68.5261 17.1589C66.3401 17.1589 65.0285 16.5127 65.0285 14.7735C65.0383 14.2962 65.2003 13.8348 65.4903 13.4585C65.7804 13.0822 66.1828 12.8111 66.6376 12.6858V12.6676C66.4715 12.5534 66.3378 12.3971 66.2497 12.2143C66.1617 12.0315 66.1225 11.8285 66.1358 11.6256C66.1487 11.4121 66.2088 11.2043 66.3118 11.0176C66.4148 10.8309 66.558 10.6701 66.7307 10.5472C66.3023 10.2785 65.9576 9.89249 65.7363 9.43382C65.515 8.97514 65.4262 8.46245 65.48 7.95483C65.48 6.3246 66.1681 4.97757 68.5261 4.97757C68.9481 4.97574 69.3685 5.02944 69.7768 5.13732H72.4288V5.73641L71.1207 6.11764C71.4446 6.67109 71.6016 7.30847 71.5723 7.9512C71.5723 9.58144 70.8842 10.9285 68.5261 10.9285C68.1797 10.9321 67.8338 10.8992 67.494 10.8304V10.8341ZM67.9492 12.969C66.9171 13.205 66.0427 13.6951 66.0427 14.7118C66.0427 15.8809 66.9171 16.2113 68.5261 16.2113C70.085 16.2113 71.5543 15.8155 71.5543 14.4685C71.5543 13.6661 71.1781 13.3466 70.2284 13.234L67.9492 12.969ZM70.5545 7.95483C70.5545 6.90916 70.3538 5.94336 68.5261 5.94336C66.6985 5.94336 66.4942 6.90916 66.4942 7.95483C66.4942 9.00051 66.6985 9.96268 68.5261 9.96268C70.3538 9.96268 70.5545 8.99688 70.5545 7.9512V7.95483ZM76.421 4.97757C79.0729 4.97757 79.3882 6.81476 79.3882 9.09128V9.59959H74.2349C74.2994 10.9757 74.6578 12.2247 76.421 12.2247C77.3016 12.2717 78.1816 12.1205 78.9976 11.7817V12.7294C78.1809 13.0683 77.3032 13.2303 76.421 13.205C73.7834 13.205 73.1419 11.3714 73.1419 9.09128C73.1419 6.81113 73.7834 4.97757 76.421 4.97757ZM74.2349 8.69552H78.2952C78.2952 7.2904 78.2164 5.96152 76.421 5.96152C74.6076 5.96152 74.2815 7.26861 74.2349 8.69552ZM83.556 8.50672C85.7743 8.71368 86.3047 9.47251 86.3047 10.7687C86.3047 11.9887 85.5414 13.205 83.1654 13.205C82.3747 13.1949 81.5902 13.0615 80.8396 12.8092V11.8616C81.5943 12.1188 82.3872 12.2417 83.1833 12.2247C84.8067 12.2247 85.2439 11.5276 85.2439 10.7832C85.2439 10.0571 85.0253 9.54876 83.4808 9.42531C81.2159 9.21836 80.7464 8.40868 80.7464 7.31944C80.7464 6.19389 81.4632 4.97757 83.6671 4.97757C84.4347 4.9595 85.1983 5.09523 85.9141 5.37696V6.32097C85.1877 6.06422 84.4219 5.94126 83.6528 5.95789C82.1046 5.95789 81.7785 6.54608 81.7785 7.32307C81.7785 8.01293 82.058 8.37601 83.556 8.50672ZM9.0625 6.11401H5.24232C5.1948 6.11401 5.14923 6.13314 5.11562 6.16718C5.08202 6.20123 5.06314 6.24741 5.06314 6.29555V8.19083C5.06314 8.23898 5.08202 8.28516 5.11562 8.3192C5.14923 8.35325 5.1948 8.37238 5.24232 8.37238H6.73313V10.7288C6.32123 10.8267 5.89784 10.8658 5.47526 10.845C4.38225 10.845 2.85561 10.4383 2.85561 7.03987C2.85561 3.64143 4.44317 3.19121 5.93755 3.19121C6.68552 3.16626 7.43158 3.28198 8.13792 3.5325C8.16426 3.53796 8.19146 3.53734 8.21753 3.53069C8.2436 3.52404 8.26785 3.51154 8.2885 3.4941C8.30915 3.47667 8.32567 3.45475 8.33682 3.42997C8.34797 3.40519 8.35348 3.37819 8.35294 3.35097L8.78298 1.52103C8.78329 1.49331 8.77692 1.46592 8.76443 1.44125C8.75194 1.41658 8.73371 1.39536 8.71131 1.37943C7.70639 0.885535 6.58763 0.678421 5.47526 0.78035C2.91295 0.78035 0.296875 1.87686 0.296875 7.17058C0.296875 12.4643 3.2964 13.2522 5.82288 13.2522C7.00576 13.2796 8.17185 12.9648 9.18435 12.3445C9.20455 12.3282 9.22038 12.307 9.2304 12.2829C9.24042 12.2588 9.2443 12.2325 9.24169 12.2065V6.29555C9.24169 6.24741 9.22281 6.20123 9.18921 6.16718C9.1556 6.13314 9.11003 6.11401 9.0625 6.11401ZM28.9339 1.41574C28.9339 1.36759 28.915 1.32142 28.8814 1.28737C28.8478 1.25333 28.8022 1.2342 28.7547 1.2342H26.6009C26.5534 1.2342 26.5078 1.25333 26.4742 1.28737C26.4406 1.32142 26.4217 1.36759 26.4217 1.41574V5.63111H23.0674V1.41574C23.0674 1.3919 23.0628 1.36829 23.0538 1.34627C23.0448 1.32424 23.0316 1.30423 23.015 1.28737C22.9983 1.27052 22.9786 1.25714 22.9568 1.24802C22.9351 1.2389 22.9118 1.2342 22.8883 1.2342H20.7381C20.7145 1.2342 20.6912 1.2389 20.6695 1.24802C20.6478 1.25714 20.628 1.27052 20.6114 1.28737C20.5947 1.30423 20.5815 1.32424 20.5725 1.34627C20.5635 1.36829 20.5589 1.3919 20.5589 1.41574V12.8346C20.5589 12.8828 20.5778 12.929 20.6114 12.963C20.645 12.9971 20.6905 13.0162 20.7381 13.0162H22.8883C22.9358 13.0162 22.9814 12.9971 23.015 12.963C23.0486 12.929 23.0674 12.8828 23.0674 12.8346V7.9512H26.4253L26.4182 12.8346C26.4182 12.8828 26.437 12.929 26.4706 12.963C26.5042 12.9971 26.5498 13.0162 26.5973 13.0162H28.7583C28.8058 13.0162 28.8514 12.9971 28.885 12.963C28.9186 12.929 28.9375 12.8828 28.9375 12.8346L28.9339 1.41574ZM13.2052 2.91164C13.2024 2.63349 13.1183 2.36242 12.9637 2.1326C12.809 1.90277 12.5907 1.72447 12.3362 1.62018C12.0817 1.51589 11.8024 1.49026 11.5335 1.54655C11.2646 1.60283 11.0182 1.73849 10.8253 1.93644C10.6325 2.13438 10.5017 2.38575 10.4496 2.65885C10.3975 2.93196 10.4264 3.21458 10.5326 3.47108C10.6388 3.72759 10.8176 3.9465 11.0464 4.10023C11.2752 4.25396 11.5438 4.33562 11.8183 4.33491C12.1884 4.33204 12.5422 4.18058 12.8022 3.91377C13.0622 3.64695 13.2071 3.28656 13.2052 2.91164ZM13.0547 10.4202V5.15185C13.0547 5.1037 13.0358 5.05753 13.0022 5.02348C12.9686 4.98943 12.923 4.97031 12.8755 4.97031H10.7253C10.6756 4.97564 10.6295 4.99929 10.5958 5.03677C10.5621 5.07424 10.5432 5.12294 10.5426 5.17363V12.7257C10.5426 12.9436 10.6787 13.0126 10.8543 13.0126H12.7895C13.0045 13.0126 13.0547 12.9036 13.0547 12.7221V10.4202ZM37.2946 4.98483H35.1551C35.1076 4.98483 35.062 5.00396 35.0284 5.038C34.9948 5.07205 34.9759 5.11822 34.9759 5.16637V10.7651C34.585 11.0245 34.1281 11.1633 33.6607 11.1645C32.8903 11.1645 32.686 10.8123 32.686 10.0498V5.17C32.686 5.12185 32.6671 5.07568 32.6335 5.04163C32.5999 5.00759 32.5543 4.98846 32.5068 4.98846H30.3423C30.3187 4.98846 30.2954 4.99316 30.2737 5.00228C30.252 5.0114 30.2322 5.02477 30.2156 5.04163C30.1989 5.05849 30.1857 5.0785 30.1767 5.10053C30.1677 5.12256 30.1631 5.14616 30.1631 5.17V10.4202C30.1631 12.693 31.4102 13.2486 33.1304 13.2486C34.0331 13.2231 34.9122 12.9508 35.6748 12.4607C35.6932 12.6168 35.7195 12.772 35.7536 12.9254C35.7692 12.9543 35.7919 12.9785 35.8196 12.9957C35.8472 13.0129 35.8788 13.0224 35.9113 13.0234L37.291 13.0162C37.3385 13.0162 37.3841 12.9971 37.4177 12.963C37.4513 12.929 37.4702 12.8828 37.4702 12.8346V5.16637C37.4702 5.14253 37.4655 5.11892 37.4565 5.0969C37.4475 5.07487 37.4343 5.05486 37.4177 5.038C37.401 5.02114 37.3813 5.00777 37.3596 4.99865C37.3378 4.98953 37.3145 4.98483 37.291 4.98483H37.2946ZM43.2506 4.73067C42.5352 4.72501 41.8312 4.91303 41.2115 5.27529V1.41574C41.2115 1.3919 41.2069 1.36829 41.1979 1.34627C41.1889 1.32424 41.1757 1.30423 41.159 1.28737C41.1424 1.27052 41.1226 1.25714 41.1009 1.24802C41.0792 1.2389 41.0559 1.2342 41.0323 1.2342H38.875C38.8514 1.2342 38.8281 1.2389 38.8064 1.24802C38.7846 1.25714 38.7649 1.27052 38.7483 1.28737C38.7316 1.30423 38.7184 1.32424 38.7094 1.34627C38.7004 1.36829 38.6958 1.3919 38.6958 1.41574V12.8346C38.6958 12.8828 38.7147 12.929 38.7483 12.963C38.7819 12.9971 38.8274 13.0162 38.875 13.0162H40.3729C40.4055 13.0159 40.4374 13.0067 40.4652 12.9894C40.493 12.9721 40.5156 12.9475 40.5306 12.9182C40.5734 12.7464 40.6033 12.5716 40.6202 12.3953C41.3448 12.9775 42.2512 13.2777 43.1754 13.2413C45.1392 13.2413 46.2645 12.2319 46.2645 8.71004C46.2645 5.18816 44.4655 4.73067 43.2506 4.73067ZM42.4084 11.1608C41.9701 11.1494 41.542 11.0244 41.1649 10.7978V7.18147C41.5043 6.98481 41.88 6.86121 42.2687 6.81839C43.0392 6.74941 43.781 6.98541 43.781 8.84438C43.781 10.805 43.4441 11.1899 42.4084 11.1608ZM19.2043 4.96668H17.5916L17.5844 2.80634C17.5844 2.72283 17.545 2.6829 17.4518 2.6829H15.2479C15.1619 2.6829 15.1189 2.7192 15.1189 2.80271V5.03566L13.9363 5.32613C13.8997 5.33777 13.8678 5.36098 13.8452 5.39235C13.8227 5.42372 13.8106 5.46159 13.8109 5.50041V6.90553C13.8109 6.95368 13.8297 6.99985 13.8633 7.0339C13.8969 7.06794 13.9425 7.08707 13.99 7.08707H15.1189V10.4637C15.1189 12.9762 16.8534 13.2231 18.0288 13.2231C18.4629 13.208 18.8931 13.1347 19.3082 13.0053C19.3389 12.9921 19.3649 12.9697 19.3829 12.9412C19.4008 12.9127 19.4097 12.8793 19.4085 12.8455L19.4121 11.2988C19.4121 11.2507 19.3932 11.2045 19.3596 11.1704C19.326 11.1364 19.2804 11.1173 19.2329 11.1173C19.1398 11.1173 18.8961 11.1536 18.6488 11.1536C17.8568 11.1536 17.588 10.7832 17.588 10.2967V7.08707H19.2043C19.2278 7.08707 19.2511 7.08237 19.2728 7.07325C19.2946 7.06413 19.3143 7.05075 19.331 7.0339C19.3476 7.01704 19.3608 6.99703 19.3698 6.975C19.3788 6.95298 19.3834 6.92937 19.3834 6.90553V5.14822C19.3834 5.10007 19.3646 5.05389 19.331 5.01985C19.2974 4.9858 19.2518 4.96668 19.2043 4.96668Z" fill="#E7E7CE"/>
</svg>
