<svg width="46" height="45" viewBox="0 0 46 45" fill="none" xmlns="http://www.w3.org/2000/svg">
<g clip-path="url(#clip0_835_207)">
<path d="M13.8918 4.47653C15.2728 4.94435 16.5866 5.59104 17.7997 6.4001C19.5128 5.96226 21.2744 5.7423 23.0426 5.74543C24.8687 5.74543 26.6304 5.97346 28.2819 6.39827C29.4944 5.58999 30.8076 4.94392 32.1879 4.47653C33.4696 4.04069 35.2957 3.33452 36.3807 4.53538C37.1163 5.35189 37.3002 6.72009 37.4308 7.76463C37.5779 8.93055 37.6129 10.4495 37.2267 11.9575C38.7034 13.8645 39.5934 16.1394 39.5934 18.6183C39.5934 22.3735 37.5595 25.634 34.5491 27.8923C33.1003 28.9654 31.4935 29.8067 29.7861 30.386C30.1797 31.2871 30.3985 32.2838 30.3985 33.3302V38.8471C30.3985 39.3348 30.2048 39.8026 29.8599 40.1475C29.515 40.4923 29.0473 40.6861 28.5595 40.6861H17.5256C17.0379 40.6861 16.5702 40.4923 16.2253 40.1475C15.8804 39.8026 15.6867 39.3348 15.6867 38.8471V37.0247C13.9304 37.2398 12.4574 37.0486 11.2051 36.5171C9.89571 35.9617 8.98357 35.1011 8.29763 34.2772C7.64663 33.4975 6.93678 31.7394 5.91063 31.3974C5.68145 31.3211 5.46954 31.2004 5.28701 31.0422C5.10447 30.884 4.95489 30.6913 4.8468 30.4753C4.62849 30.0391 4.59243 29.5339 4.74655 29.0711C4.90068 28.6082 5.23235 28.2256 5.66862 28.0072C6.10489 27.7889 6.61001 27.7529 7.07287 27.907C8.29763 28.3153 9.09575 29.198 9.64193 29.9078C10.5246 31.048 11.2418 32.5376 12.6395 33.1316C13.2151 33.3761 14.0592 33.5361 15.3796 33.3559L15.6867 33.2934C15.6902 32.2926 15.8986 31.3031 16.299 30.386C14.5917 29.8067 12.9848 28.9654 11.5361 27.8923C8.52566 25.634 6.49175 22.3753 6.49175 18.6183C6.49175 16.143 7.37998 13.8701 8.853 11.9649C8.46682 10.4569 8.49992 8.93422 8.64704 7.76647L8.65623 7.69659C8.79048 6.6263 8.94679 5.3666 9.6971 4.53538C10.7821 3.33452 12.61 4.04253 13.89 4.47837L13.8918 4.47653Z" fill="#E7E7CE"/>
</g>
<defs>
<clipPath id="clip0_835_207">
<rect width="44.1356" height="44.1356" fill="white" transform="translate(0.975586 0.228485)"/>
</clipPath>
</defs>
</svg>
