<svg width="52" height="52" viewBox="0 0 52 52" fill="none" xmlns="http://www.w3.org/2000/svg">
<g clip-path="url(#clip0_835_145)">
<path d="M39.2947 0.778076H12.2404C5.64848 0.778076 0.304688 6.12187 0.304688 12.7138V39.768C0.304688 46.36 5.64848 51.7038 12.2404 51.7038H39.2947C45.8866 51.7038 51.2304 46.36 51.2304 39.768V12.7138C51.2304 6.12187 45.8866 0.778076 39.2947 0.778076Z" fill="#E14E1D"/>
<path d="M9.85352 8.33734L11.5663 27.5524H33.5897L32.8506 35.794L25.7596 37.7113L18.682 35.7968L18.2087 30.5049H11.8309L12.743 40.7062L25.7582 44.3211L38.79 40.7062L40.5372 21.1991H17.3778L16.7963 14.6921H41.1129L41.6821 8.33734H9.85352Z" fill="white"/>
<path d="M25.7678 8.33734H9.85352L11.5663 27.5524H25.7678V21.1991H17.3778L16.7963 14.6921H25.7678V8.33734ZM25.7678 37.7085L25.7596 37.7113L18.682 35.7968L18.2087 30.5049H11.8309L12.743 40.7062L25.7582 44.3211L25.768 44.3183L25.7678 37.7085Z" fill="#EBEBEB"/>
</g>
<defs>
<clipPath id="clip0_835_145">
<rect width="50.9257" height="50.9257" fill="white" transform="translate(0.304688 0.778076)"/>
</clipPath>
</defs>
</svg>
