<svg width="45" height="45" viewBox="0 0 45 45" fill="none" xmlns="http://www.w3.org/2000/svg">
<g clip-path="url(#clip0_835_166)">
<path d="M34.4905 0.703735H11.0435C5.33051 0.703735 0.699219 5.33503 0.699219 11.048V34.495C0.699219 40.208 5.33051 44.8393 11.0435 44.8393H34.4905C40.2035 44.8393 44.8348 40.208 44.8348 34.495V11.048C44.8348 5.33503 40.2035 0.703735 34.4905 0.703735Z" fill="#F0DB4F"/>
<path d="M12.3039 37.5866L15.6813 35.5426C16.333 36.6979 16.9257 37.6754 18.3475 37.6754C19.7104 37.6754 20.5697 37.1423 20.5697 35.0686V20.9663H24.7174V35.1273C24.7174 39.4231 22.1992 41.3785 18.5253 41.3785C15.2074 41.3785 13.2814 39.6601 12.3037 37.5863M26.9702 37.1422L30.3472 35.1869C31.2363 36.6387 32.3918 37.7052 34.4358 37.7052C36.1545 37.7052 37.2503 36.846 37.2503 35.6609C37.2503 34.2389 36.1245 33.7351 34.2284 32.9058L33.1917 32.4612C30.1993 31.1875 28.2142 29.5876 28.2142 26.2102C28.2142 23.0993 30.5845 20.7291 34.2879 20.7291C36.9246 20.7291 38.8207 21.6476 40.1834 24.0473L36.9541 26.1212C36.243 24.8473 35.473 24.3437 34.2879 24.3437C33.0731 24.3437 32.3028 25.114 32.3028 26.1212C32.3028 27.3654 33.0731 27.8692 34.8506 28.6397L35.8875 29.084C39.413 30.5951 41.398 32.1354 41.398 35.6015C41.398 39.3348 38.4651 41.3788 34.5248 41.3788C30.6734 41.3788 28.1848 39.542 26.9702 37.1422Z" fill="#323330"/>
</g>
<defs>
<clipPath id="clip0_835_166">
<rect width="44.1356" height="44.1356" fill="white" transform="translate(0.699219 0.703735)"/>
</clipPath>
</defs>
</svg>
