<svg width="128" height="129" viewBox="0 0 128 129" fill="none" xmlns="http://www.w3.org/2000/svg">
<g clip-path="url(#clip0_908_198)">
<path d="M6.64831 68.1258C6.64831 72.0358 6.28531 73.3088 5.35231 74.2458C4.31631 75.0558 2.96931 75.5008 1.57031 75.5008L1.93431 77.7348C4.09831 77.7578 6.19931 77.0978 7.84031 75.8788C8.72331 74.9488 9.37931 73.8788 9.77031 72.7268C10.159 71.5862 10.2778 70.371 10.1173 69.1768V54.3818H6.64831V68.1258ZM32.5313 66.3638C32.5313 68.0398 32.5313 69.5358 32.6843 70.8328H29.6023L29.3953 68.1728C28.7503 69.1128 27.8283 69.8908 26.7233 70.4228C25.594 70.9633 24.3542 71.2331 23.1023 71.2108C20.0983 71.2108 16.5233 69.8048 16.5233 64.0628V54.5198H19.9963V63.4578C19.9963 66.5628 21.1093 68.6408 24.2423 68.6408C24.8832 68.6492 25.5205 68.5449 26.1253 68.3328C26.7086 68.1293 27.2491 67.8194 27.7193 67.4188C28.1639 67.0391 28.5243 66.5708 28.7773 66.0438C29.0213 65.5372 29.1445 64.981 29.1373 64.4188V54.4068H32.6053V66.2738L32.5313 66.3638ZM39.1103 59.8368C39.1103 57.7578 39.1103 56.0588 38.9533 54.5198H42.0633L42.2153 57.3128C42.9103 56.3008 43.9063 55.4728 45.1023 54.9148C46.3218 54.3508 47.6577 54.0841 49.0003 54.1368C53.6133 54.1368 57.0823 57.4688 57.0823 62.4268C57.0823 68.2818 52.9143 71.1878 48.4063 71.1878C47.2631 71.234 46.1241 71.0218 45.0743 70.5668C44.0473 70.1168 43.1683 69.4458 42.5273 68.6168V77.5548H39.1103V59.8368ZM42.5273 64.1918C42.5353 64.5978 42.5903 65.0038 42.6843 65.3988C42.9773 66.3908 43.6443 67.2698 44.5823 67.8988C45.5203 68.5278 46.6763 68.8638 47.8633 68.8638C51.5163 68.8638 53.6643 66.2938 53.6643 62.5638C53.6643 59.3008 51.6443 56.5078 47.9923 56.5078C46.5473 56.6098 45.1953 57.1608 44.1883 58.0628C43.1843 58.9648 42.5903 60.1488 42.5283 61.3988L42.5273 64.1918ZM63.2663 54.5038L67.4383 64.1338C67.8815 65.2287 68.2864 66.3387 68.6523 67.4618C69.0163 66.4808 69.4023 65.2268 69.8723 64.0668L73.6523 54.5038H77.3053L72.1253 66.1218C69.5353 71.7078 67.9533 74.5898 65.5703 76.3318C64.3713 77.2818 62.9063 77.9418 61.3243 78.2538L60.4693 75.7538C61.5561 75.4484 62.5816 74.9567 63.5003 74.3008C64.7623 73.4108 65.7663 72.2778 66.4263 70.9928C66.5656 70.7746 66.6623 70.532 66.7113 70.2778C66.6796 70.0058 66.6004 69.7414 66.4773 69.4968L59.4343 54.4568H63.2143L63.2663 54.5038ZM86.5163 49.8168V54.5078H91.4883V56.7428H86.5163V65.5468C86.5163 67.5588 87.1913 68.7188 89.1063 68.7188C89.7848 68.7279 90.4622 68.6598 91.1253 68.5158L91.2813 70.7538C90.2816 71.0491 89.2413 71.1838 88.1993 71.1528C87.51 71.1911 86.8197 71.0995 86.1643 70.8828C85.5309 70.6759 84.946 70.3425 84.4453 69.9028C83.3913 68.6838 82.9103 67.1688 83.0983 65.6568V56.7188H80.1453V54.4848H83.1483V50.5078L86.5163 49.8168ZM97.8833 63.1918C97.8133 63.9498 97.9333 64.7118 98.2383 65.4218C98.5559 66.1541 99.0372 66.8037 99.6453 67.3208C100.29 67.8707 101.039 68.2841 101.848 68.5358C102.672 68.8008 103.558 68.9028 104.434 68.8438C106.199 68.8819 107.955 68.5934 109.614 67.9928L110.211 70.2268C108.176 70.9458 106.026 71.2874 103.867 71.2348C102.597 71.3088 101.328 71.1448 100.141 70.7578C98.9816 70.3833 97.9093 69.7789 96.9883 68.9808C96.0983 68.1998 95.4103 67.2618 94.9803 66.2308C94.5526 65.215 94.3836 64.1089 94.4883 63.0118C94.4883 58.0938 97.8833 54.2078 103.426 54.2078C109.641 54.2078 111.196 58.8988 111.196 61.8948C111.226 62.3558 111.226 62.8168 111.196 63.2778H97.8043L97.8833 63.1918ZM108.035 60.9578C108.136 60.3584 108.087 59.7433 107.891 59.1678C107.686 58.575 107.346 58.0377 106.898 57.5978C106.426 57.1285 105.863 56.7615 105.242 56.5198C104.598 56.2643 103.912 56.132 103.219 56.1298C101.797 56.2198 100.461 56.7618 99.4803 57.6568C98.4963 58.5468 97.9373 59.7228 97.9103 60.9568L108.035 60.9578ZM116.46 59.5828C116.46 57.6648 116.46 56.0078 116.305 54.4888H119.415V57.6838H119.57C119.895 56.6998 120.57 55.8238 121.496 55.1838C122.426 54.5438 123.563 54.1688 124.75 54.1098C125.074 54.0748 125.406 54.0748 125.734 54.1098V56.9028C125.338 56.8637 124.939 56.8637 124.543 56.9028C123.367 56.9418 122.246 57.3478 121.395 58.0468C120.539 58.7468 120.012 59.6918 119.906 60.6998C119.809 61.1598 119.758 61.6218 119.75 62.0858V70.7778H116.332V59.6058L116.46 59.5828Z" fill="#4E4E4E"/>
<path d="M109.766 8.05475C109.83 9.55797 109.451 11.0468 108.676 12.3367C107.904 13.6204 106.769 14.6465 105.414 15.2857C104.062 15.9206 102.55 16.1366 101.074 15.9057C99.5958 15.6753 98.2195 15.0093 97.1214 13.9927C96.0186 12.97 95.2421 11.6447 94.8892 10.1826C94.5362 8.72059 94.6226 7.18693 95.1374 5.77375C95.6465 4.36333 96.5611 3.13486 97.7664 2.24274C98.9689 1.35494 100.409 0.846234 101.902 0.781745C102.893 0.739993 103.882 0.894879 104.813 1.23746C105.744 1.58005 106.597 2.10355 107.324 2.77774C108.801 4.14498 109.677 6.04029 109.762 8.05075L109.766 8.05475Z" fill="#767677"/>
<path d="M65.7587 97.5637C45.6607 97.5637 28.1097 90.1997 18.9927 79.2967C22.3734 89.0588 28.6977 97.5326 37.0947 103.551C45.4565 109.542 55.4843 112.764 65.7707 112.766C76.0565 112.762 86.0833 109.54 94.4457 103.551C102.841 97.5329 109.163 89.0588 112.54 79.2967C103.407 90.1997 85.8557 97.5637 65.7587 97.5637ZM65.7507 26.6567C85.8487 26.6567 103.403 34.0237 112.517 44.9217C109.136 35.16 102.812 26.6866 94.4147 20.6687C86.054 14.678 76.0281 11.454 65.7427 11.4487C55.4573 11.454 45.4314 14.678 37.0707 20.6687C28.6727 26.685 22.3486 35.159 18.9707 44.9217C28.1027 34.0437 45.6527 26.6567 65.7507 26.6567Z" fill="#F37726"/>
<path d="M38.1646 118.758C38.247 120.653 37.7702 122.531 36.7936 124.157C35.8231 125.775 34.3927 127.068 32.6848 127.87C30.9768 128.672 29.0687 128.947 27.2036 128.661C25.3386 128.373 23.6034 127.53 22.2236 126.243C20.838 124.953 19.8613 123.285 19.4146 121.446C18.9736 119.599 19.0824 117.664 19.7276 115.879C20.3747 114.099 21.5324 112.55 23.0556 111.426C24.8297 110.122 27.0028 109.477 29.2009 109.603C31.3989 109.729 33.4845 110.616 35.0986 112.114C36.9559 113.84 38.0576 116.229 38.1646 118.762V118.758Z" fill="#9E9E9E"/>
<path d="M21.2854 24.1918C20.1807 24.2398 19.0869 23.9556 18.1454 23.3758C17.1974 22.7947 16.4429 21.9459 15.977 20.9364C15.511 19.927 15.3546 18.8021 15.5274 17.7038C15.6933 16.6026 16.1831 15.5757 16.9344 14.7538C17.679 13.9355 18.6496 13.3564 19.7234 13.0898C20.7964 12.8217 21.9256 12.8859 22.9614 13.2738C24.0009 13.6567 24.9017 14.3426 25.5474 15.2428C26.3099 16.2961 26.6865 17.5798 26.6138 18.8781C26.5412 20.1764 26.0237 21.4101 25.1484 22.3718C24.6558 22.9153 24.0605 23.356 23.3968 23.6684C22.7331 23.9808 22.0141 24.1586 21.2814 24.1918H21.2854Z" fill="#616262"/>
</g>
<defs>
<clipPath id="clip0_908_198">
<rect width="128" height="128" fill="white" transform="translate(0 0.773743)"/>
</clipPath>
</defs>
</svg>
