<svg width="53" height="53" viewBox="0 0 53 53" fill="none" xmlns="http://www.w3.org/2000/svg">
<path d="M28.233 38.8246C28.4646 39.0554 28.6484 39.3296 28.7738 39.6316C28.8992 39.9336 28.9637 40.2573 28.9637 40.5843C28.9637 40.9113 28.8992 41.2351 28.7738 41.537C28.6484 41.839 28.4646 42.1133 28.233 42.3441L27.0033 43.5738C24.673 45.9041 21.5124 47.2133 18.2169 47.2133C14.9213 47.2133 11.7608 45.9041 9.43046 43.5738C7.10016 41.2435 5.79102 38.083 5.79102 34.7874C5.79102 31.4919 7.10016 28.3313 9.43046 26.001L14.4241 21.0095C16.6631 18.765 19.6756 17.4615 22.8445 17.366C26.0134 17.2706 29.0989 18.3904 31.4689 20.4961C31.7136 20.7136 31.9131 20.9771 32.0559 21.2717C32.1987 21.5663 32.2821 21.8861 32.3014 22.213C32.3206 22.5398 32.2753 22.8672 32.168 23.1765C32.0606 23.4858 31.8935 23.7709 31.676 24.0156C31.4585 24.2603 31.1949 24.4598 30.9003 24.6026C30.6057 24.7454 30.2859 24.8288 29.9591 24.848C29.6323 24.8673 29.3049 24.8219 28.9956 24.7146C28.6863 24.6073 28.4011 24.4401 28.1564 24.2226C26.7352 22.9604 24.8854 22.2889 22.9855 22.3455C21.0855 22.4021 19.2789 23.1824 17.9353 24.527L12.9459 29.5123C11.5479 30.9102 10.7625 32.8063 10.7625 34.7833C10.7625 36.7603 11.5479 38.6564 12.9459 40.0543C14.3438 41.4523 16.2399 42.2376 18.2169 42.2376C20.1939 42.2376 22.0899 41.4523 23.4879 40.0543L24.7176 38.8246C24.9484 38.5936 25.2224 38.4103 25.524 38.2853C25.8256 38.1603 26.1489 38.0959 26.4753 38.0959C26.8018 38.0959 27.1251 38.1603 27.4267 38.2853C27.7283 38.4103 28.0023 38.5936 28.233 38.8246ZM43.5699 9.42612C41.2377 7.0994 38.0779 5.79272 34.7835 5.79272C31.4892 5.79272 28.3293 7.0994 25.9971 9.42612L24.7673 10.6559C24.3006 11.1226 24.0384 11.7556 24.0384 12.4156C24.0384 13.0757 24.3006 13.7087 24.7673 14.1754C25.2341 14.6421 25.8671 14.9043 26.5271 14.9043C27.1871 14.9043 27.8202 14.6421 28.2869 14.1754L29.5166 12.9456C30.9146 11.5477 32.8106 10.7623 34.7876 10.7623C36.7647 10.7623 38.6607 11.5477 40.0587 12.9456C41.4566 14.3436 42.242 16.2396 42.242 18.2167C42.242 20.1937 41.4566 22.0897 40.0587 23.4877L35.0671 28.4813C33.7224 29.8252 31.9148 30.6045 30.0143 30.6595C28.1139 30.7146 26.2643 30.0412 24.8439 28.7773C24.5992 28.5598 24.3141 28.3926 24.0048 28.2853C23.6955 28.178 23.3681 28.1327 23.0413 28.1519C22.7145 28.1711 22.3946 28.2546 22.1001 28.3974C21.8055 28.5402 21.5419 28.7397 21.3244 28.9844C21.1069 29.229 20.9397 29.5142 20.8324 29.8235C20.7251 30.1328 20.6798 30.4602 20.699 30.787C20.7182 31.1138 20.8016 31.4337 20.9445 31.7282C21.0873 32.0228 21.2867 32.2864 21.5314 32.5039C23.8998 34.6091 26.9833 35.7296 30.1507 35.6361C33.3181 35.5426 36.33 34.2421 38.5701 32.0008L43.5637 27.0093C45.8931 24.6776 47.2021 21.5169 47.2033 18.2211C47.2045 14.9252 45.8977 11.7635 43.5699 9.43026V9.42612Z" fill="white"/>
</svg>
