<svg width="58" height="58" viewBox="0 0 58 58" fill="none" xmlns="http://www.w3.org/2000/svg">
<g clip-path="url(#clip0_835_196)">
<path d="M19.6563 45.4295L25.1324 48.4701H33.4138L41.1607 42.6535L44.6335 33.5321L36.6193 23.882L34.3487 18.4621L23.2625 18.8586L23.396 21.8992L21.2589 25.8648L17.9197 32.3424L17.252 37.7623L19.6563 45.4295Z" fill="#ECEFF1"/>
<path d="M42.2288 26.3937C40.0917 23.3531 38.3553 21.5025 37.4204 17.669C36.4854 13.8352 37.6876 14.8929 36.8862 11.5878C36.4854 9.86955 35.8175 8.67967 35.1498 7.75433C34.3483 6.829 33.4134 6.30014 32.879 6.16798C31.677 5.50718 28.872 4.44946 25.3992 6.30014C21.7928 8.15081 22.1935 12.1167 22.8614 20.1806C22.8614 20.7093 22.7277 21.3705 22.4607 21.8992C21.9265 23.089 20.9913 24.1463 20.1901 25.0719C19.255 26.3937 18.32 27.7157 17.6523 29.1697C16.0494 32.2103 14.5801 36.0438 14.9808 37.498C15.6487 37.3658 24.0636 50.0564 24.0636 50.3208C24.5978 50.1886 26.8684 50.1886 28.872 50.1886C31.677 50.0564 33.2797 49.9243 35.5505 50.4529C35.5505 50.0564 35.4168 49.6597 35.4168 49.2633C35.4168 48.4701 35.5505 47.8091 35.684 46.8837C35.8175 46.2227 35.9512 45.5619 36.0847 44.7687C34.7491 45.9584 32.3447 47.2804 30.0742 47.6769C28.0706 48.0734 24.7313 47.4126 23.1284 45.4295C23.2622 45.4295 23.5292 45.4295 23.6629 45.2974C24.0636 45.1652 24.4643 45.0331 24.5978 44.7687C24.9985 44.1077 24.7313 43.4467 24.4643 43.0502C24.1971 42.6535 22.1935 41.1993 21.2586 40.4064C20.3236 39.6132 19.7894 39.2165 19.255 38.6878L18.1865 37.6301C17.9193 37.3658 17.7858 37.1015 17.6523 36.9691C17.3851 36.3083 17.2516 35.5151 17.3851 34.4576C17.5186 33.0034 18.0528 31.8136 18.7207 30.4917C18.988 29.9629 19.6557 28.9054 19.6557 28.9054C19.6557 28.9054 17.3851 34.4576 18.5872 36.1762C18.5872 36.1762 18.7207 34.4576 19.255 32.7391C19.6557 31.5492 20.3236 29.8307 21.1251 28.9054C21.9265 27.98 23.9299 24.543 24.0636 22.4278C24.0636 21.5025 24.1971 20.5771 24.1971 19.9163C23.6629 19.3872 33.0127 18.0657 33.5469 19.5196C33.6804 20.0485 35.5505 24.8073 36.6189 27.319C37.1532 28.5089 37.8211 29.5664 38.2218 30.8882C38.6225 32.3424 38.8895 34.3253 38.8895 36.3083C38.8895 36.7048 38.8895 37.3658 38.756 38.0268C39.0233 38.0268 44.2324 32.4746 38.0883 27.8479C38.0883 27.8479 41.8281 29.5664 41.9618 33.0034C42.0953 35.7795 40.8931 38.0268 40.6261 38.4233C40.7596 38.4233 43.4309 39.6132 43.5644 39.6132C44.0989 39.6132 45.1673 39.2165 45.1673 39.2165C45.301 38.82 45.7015 37.7623 45.7015 37.3658C46.6367 34.3253 44.3659 29.4342 42.2288 26.3937Z" fill="#263238"/>
<path d="M25.2657 17.669C26.2247 17.669 27.002 16.4851 27.002 15.0251C27.002 13.5649 26.2247 12.3812 25.2657 12.3812C24.3068 12.3812 23.5293 13.5649 23.5293 15.0251C23.5293 16.4851 24.3068 17.669 25.2657 17.669ZM31.2762 17.9333C32.5304 17.9333 33.5471 16.5719 33.5471 14.8927C33.5471 13.2137 32.5304 11.8524 31.2762 11.8524C30.0223 11.8524 29.0056 13.2137 29.0056 14.8929C29.0056 16.5719 30.0223 17.9333 31.2762 17.9333Z" fill="#ECEFF1"/>
<path d="M26.2363 15.2059C26.1253 14.3368 25.6199 13.6841 25.1076 13.7482C24.5955 13.8122 24.27 14.5688 24.3812 15.4381C24.4921 16.3072 24.9973 16.9599 25.5096 16.8959C26.022 16.8316 26.3472 16.075 26.2363 15.2059ZM31.1434 17.1401C31.881 17.1401 32.479 16.3708 32.479 15.4216C32.479 14.4726 31.881 13.7031 31.1434 13.7031C30.4056 13.7031 29.8075 14.4726 29.8075 15.4216C29.8075 16.3708 30.4056 17.1401 31.1434 17.1401Z" fill="#212121"/>
<path d="M48.9078 44.5042C48.3736 44.2399 47.4384 43.8432 46.637 42.6535C46.2365 41.9925 46.37 40.1418 45.702 39.3486C45.3013 38.82 44.7671 39.0843 44.6336 39.0843C43.4314 39.3486 40.6264 41.1993 38.7565 39.0843C38.4893 38.82 38.0886 38.4233 37.4209 38.4233C36.7529 38.4233 36.4859 38.6876 36.2187 39.2165C35.9515 39.7453 35.9515 40.1418 35.9515 41.4639C35.9515 42.5214 35.9515 43.711 35.818 44.6364C35.5508 46.8837 35.1503 48.2058 35.1503 49.5276C35.1503 50.9818 35.5508 51.9071 36.0852 52.3036C36.4859 52.7003 37.1536 52.9646 38.623 52.9646C40.0922 52.9646 41.0271 52.436 41.9623 51.5104C42.63 50.8496 43.1642 50.5851 45.0343 49.2633C46.5035 48.3379 48.7743 47.148 49.1748 46.7516C49.442 46.4873 49.8427 46.3549 49.8427 45.5617C49.8427 44.9009 49.3085 44.6364 48.9078 44.5042ZM22.0605 44.9009C20.7248 42.7857 20.5911 42.3892 19.6562 41.0672C18.8547 39.7453 17.1183 37.2337 16.0499 37.2337C15.2485 37.2337 14.8478 37.6301 14.3135 38.159C13.7791 38.6876 13.2449 39.8775 12.3099 40.5385C11.5085 41.1993 9.23791 41.0672 8.70369 41.8603C8.16925 42.6535 9.23791 43.8434 9.23791 45.8262C9.23791 46.6194 8.56997 47.148 8.43647 47.6769C8.30297 48.3379 8.16925 48.7344 8.43647 49.2633C8.97069 50.0564 9.63863 50.3208 14.1798 51.2461C16.5841 51.775 18.8547 53.0968 20.3241 53.2292C21.7933 53.3613 24.3311 53.2292 24.3311 49.6597C24.4648 47.5447 23.2626 47.0159 22.0605 44.9009ZM24.5983 20.9738C23.7969 20.445 23.1289 19.9161 23.1289 19.1232C23.1289 18.33 23.6634 18.0654 24.4648 17.4046C24.5983 17.2723 26.0674 15.9504 27.5368 15.9504C29.006 15.9504 30.7424 16.8758 31.4103 17.1403C32.6124 17.4044 33.8144 17.669 33.6809 18.5943C33.5474 19.9161 33.4139 20.1807 32.078 20.8417C31.1431 21.106 29.4067 22.5602 28.2045 22.5602C27.6703 22.5602 26.8689 22.5602 26.3347 22.4278C25.9339 22.2956 25.266 21.6346 24.5983 20.9738Z" fill="#FFC107"/>
<path d="M24.331 19.9161C24.5982 20.1806 24.9989 20.4452 25.3996 20.5771C25.6666 20.7093 26.0674 20.8417 26.0674 20.8417H27.2695C27.9375 20.8417 28.8724 20.5771 29.8073 20.0485C30.7423 19.6518 30.876 19.3875 31.5437 19.1231C32.2116 18.7264 32.8794 18.33 32.6124 18.1978C32.3451 18.0654 32.0779 18.1978 31.143 18.7264C30.3415 19.2553 29.6738 19.5196 28.8724 19.9163C28.4717 20.0485 27.9375 20.3128 27.5367 20.3128H26.3346C25.9339 20.3128 25.6666 20.1806 25.2659 20.0485C24.9989 19.9161 24.8652 19.7839 24.7317 19.7839C24.4647 19.6518 23.9303 19.1231 23.6633 18.9908C23.6633 18.9908 23.396 18.9908 23.5295 19.1231L24.331 19.9161ZM28.3382 17.0079C28.4717 17.2722 28.7389 17.2722 28.8724 17.4044C29.0059 17.5368 29.1396 17.5368 29.1396 17.5368C29.2731 17.4044 29.1396 17.1401 29.0059 17.1401C29.0059 16.8758 28.3382 16.8758 28.3382 17.0079ZM26.2011 17.2722C26.2011 17.4046 26.4681 17.5368 26.4681 17.4046C26.6018 17.2722 26.7353 17.1401 26.8688 17.1401C27.136 17.0079 27.0023 16.8758 26.6018 16.8758C26.3346 17.0079 26.3346 17.1401 26.2011 17.2722Z" fill="#634703"/>
<path d="M39.1573 40.6707V41.0672C39.4245 41.596 40.0922 41.7282 40.6264 41.7282C41.4279 41.7282 42.2293 41.1993 42.63 40.6707C42.63 40.5385 42.7635 40.4061 42.8972 40.274C43.1642 39.8775 43.298 39.6132 43.4315 39.4808C43.4315 39.4808 43.298 39.3486 43.298 39.2165C43.1642 38.9522 42.7635 38.6876 42.2293 38.5555C41.8286 38.4233 41.1609 38.2912 40.8936 38.2912C39.6915 38.159 39.0238 38.5555 38.623 38.9522C38.623 38.9522 38.7565 38.9522 38.7565 39.0843C39.0238 39.3487 39.1573 39.6132 39.1573 40.0097C39.2908 40.274 39.1573 40.4061 39.1573 40.6707Z" fill="#455A64"/>
</g>
<defs>
<clipPath id="clip0_835_196">
<rect width="57.1499" height="57.1499" fill="white" transform="translate(0.46875 0.797668)"/>
</clipPath>
</defs>
</svg>
