<svg width="103" height="61" viewBox="0 0 103 61" fill="none" xmlns="http://www.w3.org/2000/svg">
<g clip-path="url(#clip0_920_10)">
<path d="M29.1272 22.1028C29.1272 23.3535 29.264 24.3674 29.5026 25.1109C29.8055 25.9475 30.1702 26.7607 30.5937 27.5441C30.7643 27.8145 30.8323 28.0848 30.8323 28.3216C30.8323 28.6593 30.6279 28.9974 30.1845 29.3355L28.036 30.7548C27.729 30.9577 27.4221 31.059 27.1489 31.059C26.8081 31.059 26.4669 30.89 26.1257 30.5858C25.6662 30.0964 25.2552 29.5645 24.8982 28.9974C24.557 28.4233 24.2158 27.7806 23.8408 27.0035C21.1805 30.1125 17.8378 31.6674 13.8136 31.6674C10.9489 31.6674 8.66359 30.8561 6.99225 29.2342C5.32132 27.6115 4.46875 25.4486 4.46875 22.7451C4.46875 19.8725 5.49191 17.5405 7.57243 15.7831C9.65255 14.0257 12.4154 13.1469 15.9283 13.1469C17.0879 13.1469 18.2816 13.2482 19.5434 13.4173C20.8055 13.5863 22.1015 13.8566 23.4658 14.1608V11.6937C23.4658 9.12493 22.9198 7.334 21.8625 6.28624C20.7713 5.23847 18.9294 4.73133 16.3033 4.73133C15.1095 4.73133 13.882 4.86689 12.6198 5.17109C11.3581 5.4749 10.1301 5.84688 8.93638 6.32013C8.3908 6.55655 7.98161 6.69171 7.74262 6.75949C7.50403 6.82726 7.33344 6.86075 7.19704 6.86075C6.71946 6.86075 6.48087 6.52266 6.48087 5.81299V4.15682C6.48087 3.61619 6.54927 3.21072 6.71946 2.9743C6.89005 2.73747 7.19704 2.50105 7.67463 2.26462C8.86838 1.65622 10.3007 1.14908 11.9717 0.743609C13.6434 0.304249 15.4169 0.101713 17.2927 0.101713C21.3515 0.101713 24.3188 1.01392 26.2287 2.83914C28.1044 4.66396 29.0596 7.43527 29.0596 11.1531V22.1028H29.1272ZM15.2801 27.2399C16.4059 27.2399 17.5654 27.0374 18.793 26.6315C20.0209 26.2261 21.1125 25.4825 22.0331 24.4686C22.579 23.8267 22.9882 23.1171 23.1926 22.3057C23.3974 21.4948 23.5338 20.5144 23.5338 19.3654V17.946C22.4995 17.6965 21.4519 17.5047 20.3959 17.3715C19.3326 17.2377 18.2619 17.1699 17.1901 17.1686C14.9047 17.1686 13.2338 17.6079 12.1085 18.5205C10.9827 19.4331 10.4371 20.7173 10.4371 22.407C10.4371 23.9954 10.8463 25.1783 11.6989 25.9896C12.5176 26.8345 13.7114 27.2399 15.2801 27.2399ZM42.6673 30.89C42.0533 30.89 41.6441 30.7887 41.3713 30.5519C41.0985 30.3493 40.8595 29.8761 40.6551 29.2342L32.6405 3.10945C32.4353 2.43327 32.3331 1.99391 32.3331 1.75748C32.3331 1.21686 32.6059 0.912256 33.1518 0.912256H36.4941C37.1419 0.912256 37.5857 1.01392 37.8243 1.25035C38.097 1.45328 38.3018 1.92653 38.5062 2.56843L44.236 24.9419L49.5566 2.56843C49.7272 1.89264 49.932 1.45328 50.2044 1.25035C50.4776 1.04781 50.9551 0.912655 51.5691 0.912655H54.2974C54.9452 0.912655 55.389 1.01392 55.6614 1.25035C55.9346 1.45328 56.1731 1.92653 56.3095 2.56843L61.6985 25.2122L67.5985 2.56843C67.8029 1.89264 68.0419 1.45328 68.2805 1.25035C68.5533 1.04781 68.9966 0.912655 69.6106 0.912655H72.7823C73.3283 0.912655 73.6353 1.18297 73.6353 1.75748C73.6353 1.92653 73.6011 2.09558 73.5669 2.29811C73.5327 2.50105 73.4647 2.77136 73.3283 3.14334L65.1084 29.2677C64.904 29.9439 64.6654 30.3832 64.3922 30.5858C64.1194 30.7887 63.676 30.9239 63.0967 30.9239H60.1636C59.5154 30.9239 59.072 30.8226 58.7988 30.5858C58.5261 30.3493 58.2875 29.91 58.1511 29.2342L52.8643 7.43527L47.6121 29.1999C47.4419 29.8761 47.2371 30.3155 46.9643 30.5519C46.6915 30.7887 46.2139 30.89 45.6003 30.89H42.6673ZM86.4934 31.8026C84.7198 31.8026 82.9463 31.5996 81.2412 31.1942C79.5356 30.7887 78.2059 30.3489 77.3191 29.8426C76.7731 29.538 76.3978 29.2003 76.2618 28.8961C76.1289 28.5978 76.0592 28.2757 76.057 27.9496V26.2261C76.057 25.5164 76.3298 25.1783 76.8415 25.1783C77.0504 25.1791 77.2578 25.2134 77.4555 25.28C77.6599 25.3477 77.9669 25.4825 78.3081 25.6177C79.5127 26.1427 80.7702 26.5392 82.0595 26.8006C83.3955 27.0692 84.7552 27.2051 86.1184 27.206C88.2669 27.206 89.9382 26.8345 91.0978 26.0909C92.2573 25.3473 92.8713 24.2661 92.8713 22.8802C92.8713 21.9341 92.5643 21.1567 91.9504 20.5144C91.3364 19.8725 90.1768 19.298 88.5059 18.7569L83.5603 17.2363C81.0706 16.4589 79.229 15.3099 78.1033 13.7888C76.9779 12.3017 76.3982 10.6459 76.3982 8.8885C76.3982 7.46916 76.7051 6.21846 77.3191 5.1368C77.9327 4.05555 78.7515 3.10945 79.7746 2.36589C80.7978 1.58844 81.9573 1.01392 83.3217 0.608452C84.6856 0.202981 86.118 0.0339355 87.6187 0.0339355C88.3691 0.0339355 89.1537 0.0678244 89.904 0.169092C90.6886 0.27036 91.4048 0.405517 92.1209 0.540674C92.8029 0.70972 93.4511 0.878766 94.0651 1.0817C94.679 1.28424 95.1562 1.48717 95.4974 1.68971C95.975 1.96042 96.3158 2.23073 96.5206 2.53494C96.7254 2.80525 96.8276 3.17683 96.8276 3.65008V5.23847C96.8276 5.94814 96.5548 6.32013 96.043 6.32013C95.7702 6.32013 95.3268 6.18457 94.7474 5.91426C92.8029 5.03554 90.6202 4.59618 88.1989 4.59618C86.2548 4.59618 84.7198 4.90038 83.6625 5.54267C82.6055 6.18457 82.0595 7.16496 82.0595 8.55041C82.0595 9.49691 82.4007 10.3079 83.0827 10.9501C83.7651 11.592 85.0268 12.2343 86.8346 12.8089L91.6776 14.3299C94.1331 15.1073 95.9066 16.1886 96.964 17.574C98.0213 18.9599 98.5331 20.5483 98.5331 22.3057C98.5331 23.7589 98.2257 25.077 97.6459 26.2261C97.0324 27.3751 96.2136 28.389 95.1562 29.2003C94.0989 30.0451 92.8371 30.6535 91.3706 31.0929C89.8356 31.5662 88.2327 31.8026 86.4934 31.8026Z" fill="#252F3E"/>
<path d="M92.9391 48.2275C81.7186 56.4401 65.4156 60.7998 51.3983 60.7998C31.7531 60.7998 14.0524 53.601 0.682911 41.6371C-0.374448 40.691 0.580314 39.4068 1.84206 40.15C16.3031 48.4643 34.1406 53.4998 52.5921 53.4998C65.0406 53.4998 78.7171 50.9314 91.3024 45.6591C93.1781 44.8139 94.781 46.8759 92.9391 48.2275ZM97.6119 42.9552C96.1796 41.1303 88.1303 42.0764 84.481 42.5158C83.3895 42.6513 83.2189 41.7049 84.2083 40.9952C90.62 36.5338 101.159 37.8184 102.387 39.3051C103.615 40.8261 102.045 51.2691 96.0428 56.2711C95.1222 57.0485 94.2355 56.6431 94.6446 55.6292C96.0086 52.283 99.0443 44.7465 97.6119 42.9552Z" fill="#FF9900"/>
</g>
<defs>
<clipPath id="clip0_920_10">
<rect width="103" height="61" fill="white"/>
</clipPath>
</defs>
</svg>
