<svg width="47" height="47" viewBox="0 0 47 47" fill="none" xmlns="http://www.w3.org/2000/svg">
<path d="M31.2819 29.2705L37.011 23.6121L35.0058 21.5845L32.7142 23.8479V17.9537H29.8496V23.8479L27.5579 21.5845L25.5527 23.6121L31.2819 29.2705ZM8.36532 38.7012C7.31498 38.7012 6.41614 38.3321 5.66881 37.594C4.92148 36.8559 4.54717 35.9676 4.5459 34.9289V12.2953C4.5459 11.2579 4.9202 10.3702 5.66881 9.63207C6.41742 8.89397 7.31626 8.52428 8.36532 8.52303H38.9207C39.9711 8.52303 40.8705 8.89271 41.6192 9.63207C42.3678 10.3714 42.7414 11.2592 42.7402 12.2953V34.9289C42.7402 35.9663 42.3665 36.8547 41.6192 37.594C40.8718 38.3334 39.9723 38.7025 38.9207 38.7012H8.36532ZM11.2299 29.2705H14.0945V20.7829H16.0042V26.4413H18.8687V20.7829H20.7785V29.2705H23.643V19.8398C23.643 19.3054 23.4597 18.8578 23.093 18.4969C22.7264 18.136 22.2731 17.955 21.7333 17.9537H13.1396C12.5985 17.9537 12.1453 18.1348 11.7799 18.4969C11.4145 18.8591 11.2312 19.3067 11.2299 19.8398V29.2705Z" fill="#3178C6"/>
</svg>
