<svg width="51" height="52" viewBox="0 0 51 52" fill="none" xmlns="http://www.w3.org/2000/svg">
<path d="M26.6963 47.9476L25.5144 47.5557C25.5144 47.5557 25.6718 41.5755 23.5079 41.1553C22.0915 39.506 23.7172 -29.2556 28.8948 40.9208C27.9124 41.4191 27.1608 42.2779 26.797 43.3176C26.602 44.8532 26.5683 46.405 26.6963 47.9476Z" fill="url(#paint0_linear_835_227)"/>
<path d="M27.3358 42.1704C30.4826 39.8015 32.8925 36.5882 34.2854 32.904C35.6784 29.2197 35.9971 25.2158 35.2045 21.3576C32.8911 11.1519 27.4129 7.79664 26.8228 6.51561C26.3136 5.71793 25.879 4.87504 25.5244 3.99762L25.9603 32.4336C25.9603 32.4336 25.057 41.1238 27.3358 42.1704Z" fill="url(#paint1_linear_835_227)"/>
<path d="M24.9135 42.5481C24.9135 42.5481 15.2806 35.9871 15.8377 24.3808C15.8897 20.8818 16.692 17.4347 18.1903 14.2723C19.6887 11.11 21.8483 8.30599 24.5232 6.0498C24.8358 5.78422 25.0842 5.45126 25.2496 5.07593C25.4151 4.7006 25.4933 4.29266 25.4785 3.88275C26.0781 5.17322 25.9805 23.1501 26.0435 25.2526C26.2874 33.4314 25.5886 41.0042 24.9135 42.5481Z" fill="url(#paint2_linear_835_227)"/>
<defs>
<linearGradient id="paint0_linear_835_227" x1="18.7515" y1="26.3122" x2="32.3355" y2="30.9219" gradientUnits="userSpaceOnUse">
<stop offset="0.231" stop-color="#999875"/>
<stop offset="0.563" stop-color="#9B9977"/>
<stop offset="0.683" stop-color="#A09F7E"/>
<stop offset="0.768" stop-color="#A9A889"/>
<stop offset="0.837" stop-color="#B7B69A"/>
<stop offset="0.896" stop-color="#C9C7B0"/>
<stop offset="0.948" stop-color="#DEDDCB"/>
<stop offset="0.994" stop-color="#F8F6EB"/>
<stop offset="1" stop-color="#FBF9EF"/>
</linearGradient>
<linearGradient id="paint1_linear_835_227" x1="23.7334" y1="3.79443" x2="29.7389" y2="41.2951" gradientUnits="userSpaceOnUse">
<stop stop-color="#48A547"/>
<stop offset="1" stop-color="#3F9143"/>
</linearGradient>
<linearGradient id="paint2_linear_835_227" x1="15.0091" y1="25.5296" x2="31.1252" y2="20.1324" gradientUnits="userSpaceOnUse">
<stop stop-color="#41A247"/>
<stop offset="0.352" stop-color="#4BA74B"/>
<stop offset="0.956" stop-color="#67B554"/>
<stop offset="1" stop-color="#69B655"/>
</linearGradient>
</defs>
</svg>
