<svg width="81" height="82" viewBox="0 0 81 82" fill="none" xmlns="http://www.w3.org/2000/svg">
<g clip-path="url(#clip0_971_5)">
<path d="M50.9162 52.9188H45.362L44.8975 52.4493V39.287C44.8975 36.9448 43.9888 35.13 41.1993 35.0665C39.7635 35.0281 38.1213 35.0665 36.3659 35.137L36.1026 35.4093V52.4428L35.6388 52.9124H30.084L29.6201 52.4428V29.9582L30.084 29.4886H42.5839C47.442 29.4886 51.3794 33.4733 51.3794 38.392V52.4493L50.9162 52.9188Z" fill="#014847"/>
<path d="M37.2992 76.8122V59.9446L37.7631 59.4743H43.3299L43.7938 59.9439V76.8122L43.3299 77.2818H37.7637L37.2992 76.8122ZM37.2992 22.4629V5.59522L37.7631 5.125H43.3299L43.7938 5.59458V22.4629L43.3299 22.9325H37.7637L37.2992 22.4629ZM80.5425 44.4908H58.3257L57.8618 44.0212V38.3862L58.3257 37.9167H80.5425L81.0063 38.3862V44.0218L80.5425 44.4908ZM22.6806 44.4908H0.463852L0 44.0212V38.3862L0.463852 37.9167H22.6806L23.1445 38.3862V44.0218L22.6806 44.4908ZM17.3081 21.6634V20.8889L21.1264 17.024H21.8909L27.7273 22.9325V27.026L27.1882 27.5719H23.1445L17.3081 21.6634ZM21.8909 65.3764H21.1264L17.3087 61.5115V60.737L23.1451 54.8292H27.1888L27.7273 55.3743V59.4679L21.8909 65.3764Z" fill="#05BDBA"/>
</g>
<defs>
<clipPath id="clip0_971_5">
<rect width="81" height="82" fill="white"/>
</clipPath>
</defs>
</svg>
