<svg width="47" height="47" viewBox="0 0 47 47" fill="none" xmlns="http://www.w3.org/2000/svg">
<g clip-path="url(#clip0_835_155)">
<mask id="mask0_835_155" style="mask-type:luminance" maskUnits="userSpaceOnUse" x="0" y="0" width="47" height="47">
<path d="M0.301758 0.778076H46.7007V46.0453H0.301758V0.778076Z" fill="white"/>
</mask>
<g mask="url(#mask0_835_155)">
<path d="M21.9817 0.789629C21.8811 0.799059 21.5641 0.831124 21.278 0.851871C14.6893 1.4328 8.51824 4.90141 4.60526 10.2335C2.44442 13.1603 1.03973 16.5527 0.510553 20.1225C0.324957 21.3674 0.301758 21.7333 0.301758 23.4195C0.301758 25.1057 0.324957 25.4735 0.510553 26.7165C1.77106 35.2173 7.97305 42.3582 16.3809 45.0044C17.887 45.4779 19.4742 45.8004 21.278 45.9965C21.9817 46.072 25.0208 46.072 25.7245 45.9965C28.839 45.6589 31.4799 44.9064 34.0821 43.6106C34.4823 43.4125 34.5596 43.3578 34.5055 43.3145C33.2326 41.6768 31.9727 40.0295 30.7259 38.3728L27.016 33.482L22.3683 26.7693C20.8219 24.524 19.2611 22.2883 17.6859 20.0622C17.6685 20.0565 17.6511 23.0385 17.6414 26.6825C17.6279 33.0576 17.6221 33.3142 17.5409 33.4651C17.4617 33.6412 17.3204 33.7837 17.1426 33.8668C16.9976 33.9385 16.872 33.9517 16.1857 33.9517H15.4007L15.192 33.8234C15.0627 33.7438 14.9579 33.6318 14.8884 33.499L14.7918 33.301L14.8014 24.4286L14.815 15.5524L14.9561 15.3789C15.0511 15.2704 15.165 15.1791 15.2925 15.1092C15.4781 15.0205 15.5496 15.013 16.3365 15.013C17.2606 15.013 17.4152 15.0469 17.655 15.3034C17.7226 15.3751 20.2398 19.0757 23.2518 23.5308L32.404 37.0581L36.0773 42.4864L36.2648 42.3676C38.0326 41.221 39.6353 39.849 41.0304 38.2879C43.9538 35.0236 45.8501 31.0058 46.4919 26.7165C46.6775 25.4716 46.7007 25.1057 46.7007 23.4195C46.7007 21.7333 46.6775 21.3674 46.4919 20.1225C45.2314 11.6236 39.0294 4.4808 30.6215 1.83455C29.0501 1.34711 27.432 1.0166 25.7922 0.848099C25.3553 0.802832 22.3587 0.753792 21.9836 0.791515M31.4819 14.4849C31.5897 14.5378 31.6857 14.6111 31.7643 14.7005C31.8429 14.7898 31.9027 14.8935 31.94 15.0054C31.9748 15.1186 31.9845 17.58 31.9748 23.1253L31.9613 31.081L30.5249 28.9308L29.0826 26.7806V20.9977C29.0826 17.2575 29.1 15.1563 29.1271 15.0545C29.1593 14.9367 29.2156 14.8264 29.2927 14.7305C29.3698 14.6345 29.4661 14.5548 29.5756 14.4962C29.7632 14.4019 29.8308 14.3943 30.5423 14.3943C31.2131 14.3943 31.3311 14.4038 31.4819 14.483" fill="#4682B4"/>
</g>
</g>
<defs>
<clipPath id="clip0_835_155">
<rect width="46.3989" height="45.2673" fill="white" transform="translate(0.301758 0.778076)"/>
</clipPath>
</defs>
</svg>
