<svg width="47" height="46" viewBox="0 0 47 46" fill="none" xmlns="http://www.w3.org/2000/svg">
<g clip-path="url(#clip0_835_170)">
<path d="M23.501 45.2296C22.8479 45.2296 22.2406 45.0618 21.6734 44.7713L15.8889 41.4932C15.0199 41.0367 15.4554 40.8708 15.717 40.7878C16.8896 40.4143 17.1073 40.3313 18.3257 39.6655C18.4555 39.5825 18.6312 39.624 18.7611 39.707L23.1973 42.2401C23.3692 42.3231 23.5888 42.3231 23.7187 42.2401L41.0722 32.651C41.2441 32.568 41.332 32.402 41.332 32.1945V13.0578C41.332 12.8503 41.246 12.6843 41.0722 12.6014L23.7187 3.05562C23.5449 2.97263 23.3272 2.97263 23.1973 3.05562L5.84378 12.6014C5.66999 12.6843 5.58215 12.8918 5.58215 13.0578V32.1945C5.58215 32.3605 5.66999 32.568 5.84378 32.651L10.5837 35.2671C13.1503 36.5119 14.7583 35.0596 14.7583 33.6073V14.7195C14.7583 14.4705 14.976 14.2215 15.2816 14.2215H17.4988C17.7604 14.2215 18.0201 14.429 18.0201 14.7195V33.6054C18.0201 36.8854 16.1505 38.7941 12.8887 38.7941C11.888 38.7941 11.105 38.7941 8.88786 37.7568L4.32174 35.2671C3.77152 34.9682 3.31204 34.5298 2.99076 33.9969C2.66947 33.4641 2.49803 32.8562 2.49414 32.236V13.0993C2.49414 11.8544 3.18928 10.6926 4.32174 10.0702L21.6753 0.47916C22.2403 0.193007 22.8661 0.0437622 23.501 0.0437622C24.1359 0.0437622 24.7617 0.193007 25.3267 0.47916L42.6821 10.0683C43.8127 10.6907 44.5078 11.8526 44.5078 13.0974V32.2341C44.5078 33.479 43.8127 34.6409 42.6821 35.2652L25.3286 44.8524C24.7518 45.0994 24.1297 45.2265 23.501 45.2259M28.8501 32.0663C21.2399 32.0663 19.6739 28.7467 19.6739 25.9231C19.6739 25.6742 19.8916 25.4252 20.1953 25.4252H22.4564C22.718 25.4252 22.9338 25.5912 22.9338 25.8401C23.2833 28.0394 24.284 29.1183 28.894 29.1183C32.5473 29.1183 34.1133 28.3298 34.1133 26.4626C34.1133 25.3837 33.6778 24.5953 27.9812 24.0559C23.2393 23.5975 20.2831 22.6035 20.2831 18.9916C20.2831 15.6286 23.2393 13.635 28.1989 13.635C33.7657 13.635 36.5061 15.4626 36.8537 19.448C36.8498 19.583 36.8038 19.7134 36.7219 19.8215C36.636 19.9045 36.5061 19.9875 36.3744 19.9875H34.1133C34.0034 19.9848 33.8974 19.947 33.8113 19.8796C33.7252 19.8122 33.6636 19.719 33.6358 19.614C33.1126 17.3318 31.7643 16.583 28.1989 16.583C24.1961 16.583 23.7187 17.9108 23.7187 18.9086C23.7187 20.112 24.284 20.4854 29.677 21.1493C35.0261 21.8132 37.5488 22.7676 37.5488 26.3362C37.5049 29.9915 34.3749 32.0663 28.8501 32.0663Z" fill="#46B46B"/>
</g>
<defs>
<clipPath id="clip0_835_170">
<rect width="45.8331" height="45.2673" fill="white" transform="translate(0.583984 0.0453491)"/>
</clipPath>
</defs>
</svg>
