<svg width="45" height="45" viewBox="0 0 45 45" fill="none" xmlns="http://www.w3.org/2000/svg">
<path d="M22.5551 0.653259C11.3778 0.653259 12.0757 5.45704 12.0757 5.45704L12.0881 10.4339H22.7544V11.9281H7.8516C7.8516 11.9281 0.699219 11.1242 0.699219 22.3011C0.699219 33.4784 6.94199 33.082 6.94199 33.082H10.6677V27.8953C10.6677 27.8953 10.4668 21.7084 16.8108 21.7084H27.3899C27.3899 21.7084 33.3335 21.8036 33.3335 16.0154V6.44513C33.3335 6.44513 34.2362 0.653259 22.5551 0.653259ZM16.6737 4.0001C16.9258 3.99987 17.1754 4.04891 17.4083 4.1444C17.6412 4.23989 17.8528 4.37996 18.0311 4.55659C18.2093 4.73322 18.3506 4.94295 18.447 5.17378C18.5433 5.4046 18.5928 5.65199 18.5926 5.90179C18.5928 6.15159 18.5433 6.39898 18.447 6.6298C18.3506 6.86063 18.2093 7.07036 18.0311 7.24699C17.8528 7.42362 17.6412 7.56369 17.4083 7.65918C17.1754 7.75467 16.9258 7.80371 16.6737 7.80348C16.4217 7.80371 16.172 7.75467 15.9391 7.65918C15.7062 7.56369 15.4946 7.42362 15.3164 7.24699C15.1381 7.07036 14.9968 6.86063 14.9005 6.6298C14.8041 6.39898 14.7546 6.15159 14.7549 5.90179C14.7546 5.65199 14.8041 5.4046 14.9005 5.17378C14.9968 4.94295 15.1381 4.73322 15.3164 4.55659C15.4946 4.37996 15.7062 4.23989 15.9391 4.1444C16.172 4.04891 16.4217 3.99987 16.6737 4.0001Z" fill="url(#paint0_linear_835_185)"/>
<path d="M22.8729 44.0613C34.0502 44.0613 33.3523 39.2575 33.3523 39.2575L33.3399 34.2808H22.6734V32.7867H37.5762C37.5762 32.7867 44.7286 33.5906 44.7286 22.4133C44.7286 11.2362 38.4858 11.6326 38.4858 11.6326H34.7602V16.8191C34.7602 16.8191 34.961 23.006 28.617 23.006H18.0379C18.0379 23.006 12.0943 22.9109 12.0943 28.6991V38.2696C12.0943 38.2696 11.1918 44.0613 22.8727 44.0613M28.7541 40.7148C28.502 40.715 28.2524 40.666 28.0195 40.5705C27.7866 40.475 27.575 40.335 27.3968 40.1583C27.2185 39.9817 27.0772 39.772 26.9808 39.5411C26.8845 39.3103 26.835 39.0629 26.8352 38.8131C26.835 38.5633 26.8844 38.3159 26.9808 38.0851C27.0771 37.8542 27.2185 37.6445 27.3967 37.4678C27.5749 37.2912 27.7866 37.1511 28.0195 37.0556C28.2524 36.9601 28.502 36.911 28.7541 36.9113C29.0062 36.911 29.2558 36.9601 29.4887 37.0556C29.7216 37.1511 29.9332 37.2911 30.1114 37.4678C30.2897 37.6444 30.431 37.8541 30.5274 38.0849C30.6237 38.3158 30.6732 38.5632 30.673 38.813C30.6732 39.0628 30.6237 39.3101 30.5274 39.541C30.431 39.7718 30.2897 39.9815 30.1114 40.1582C29.9332 40.3348 29.7216 40.4749 29.4887 40.5703C29.2558 40.6658 29.0062 40.715 28.7541 40.7148Z" fill="url(#paint1_linear_835_185)"/>
<defs>
<linearGradient id="paint0_linear_835_185" x1="423.817" y1="391.083" x2="2586.34" y2="2551.37" gradientUnits="userSpaceOnUse">
<stop stop-color="#387EB8"/>
<stop offset="1" stop-color="#366994"/>
</linearGradient>
<linearGradient id="paint1_linear_835_185" x1="636.616" y1="679.017" x2="2959.88" y2="2895.11" gradientUnits="userSpaceOnUse">
<stop stop-color="#FFE052"/>
<stop offset="1" stop-color="#FFC331"/>
</linearGradient>
</defs>
</svg>
