<svg width="52" height="46" viewBox="0 0 52 46" fill="none" xmlns="http://www.w3.org/2000/svg">
<path d="M42.4257 15.4351C41.8838 15.2495 41.3372 15.0776 40.7866 14.9195C40.8791 14.5423 40.9642 14.1696 41.0398 13.8035C42.2807 7.79149 41.4695 2.94809 38.6986 1.35341C36.0419 -0.17535 31.6971 1.41873 27.3092 5.23012C26.8767 5.60642 26.4539 5.99356 26.041 6.39118C25.7646 6.12678 25.4833 5.86751 25.1973 5.6135C20.5985 1.53825 15.9889 -0.179321 13.2211 1.41992C10.5668 2.95345 9.78079 7.50658 10.898 13.2043C11.0091 13.7686 11.1346 14.33 11.2743 14.8879C10.6219 15.073 9.99225 15.2699 9.3897 15.4796C3.99794 17.3558 0.554688 20.296 0.554688 23.3458C0.554688 26.4956 4.25118 29.655 9.86692 31.5707C10.3222 31.7254 10.7813 31.8687 11.2437 32.0005C11.0935 32.6015 10.9602 33.2065 10.8439 33.8148C9.7788 39.4137 10.6105 43.8592 13.2577 45.383C15.9917 46.9566 20.5806 45.3393 25.0487 41.441C25.4111 41.124 25.7654 40.7981 26.1114 40.4635C26.5585 40.8941 27.0176 41.3121 27.488 41.7171C31.8163 45.4342 36.0909 46.9352 38.7354 45.4072C41.4669 43.829 42.3547 39.0533 41.2021 33.243C41.1113 32.7878 41.0095 32.3349 40.8968 31.8846C41.219 31.7893 41.5353 31.6912 41.8437 31.5892C47.6818 29.6588 51.4804 26.5377 51.4804 23.3458C51.4804 20.2849 47.9259 17.3248 42.4257 15.4351ZM41.1596 29.5283C40.8811 29.6202 40.5954 29.709 40.3042 29.7954C39.6596 27.7589 38.7899 25.5936 37.7255 23.3563C38.7412 21.1723 39.5775 19.0346 40.2039 17.0115C40.7249 17.162 41.2304 17.3206 41.7178 17.488C46.4304 19.1073 49.3049 21.5011 49.3049 23.3458C49.3049 25.3105 46.2004 27.8612 41.1596 29.5283ZM39.068 33.6647C39.5777 36.2338 39.6503 38.5568 39.3127 40.3728C39.0095 42.0046 38.3996 43.0924 37.6453 43.5282C36.0405 44.4554 32.6084 43.2503 28.907 40.0712C28.4694 39.6947 28.0424 39.306 27.6265 38.9058C29.0615 37.3395 30.4956 35.5187 31.8953 33.4963C34.3572 33.2784 36.6831 32.9218 38.7923 32.4351C38.8939 32.8428 38.9858 33.2527 39.068 33.6647ZM17.9164 43.368C16.3484 43.9205 15.0995 43.9364 14.3446 43.502C12.7383 42.5774 12.0705 39.0078 12.9813 34.2198C13.0896 33.654 13.2136 33.0914 13.3531 32.5324C15.4391 32.993 17.7481 33.3242 20.2158 33.5239C21.625 35.5028 23.1004 37.3216 24.5874 38.9143C24.2714 39.2195 23.9479 39.5169 23.6173 39.8062C21.6413 41.5299 19.6614 42.7529 17.9164 43.368ZM10.5707 29.5162C8.08751 28.669 6.03676 27.5681 4.63113 26.3668C3.36793 25.2873 2.73037 24.2154 2.73037 23.3458C2.73037 21.495 5.49488 19.1343 10.1058 17.5299C10.6654 17.3353 11.2511 17.1517 11.8588 16.9794C12.4962 19.0481 13.3321 21.2112 14.3408 23.3986C13.3189 25.6183 12.4711 27.8159 11.8276 29.9091C11.4055 29.7884 10.9864 29.6574 10.5707 29.5162ZM13.0331 12.7872C12.076 7.90565 12.7116 4.22332 14.3112 3.29911C16.0148 2.31475 19.7821 3.71823 23.7529 7.23716C24.0119 7.46715 24.2666 7.7018 24.517 7.94099C23.0374 9.52673 21.5755 11.3321 20.1788 13.2992C17.7837 13.5208 15.491 13.8766 13.3832 14.3533C13.2533 13.8343 13.1366 13.312 13.0331 12.7872ZM35.0001 18.2012C34.5023 17.3429 33.9859 16.4954 33.4515 15.6593C35.0763 15.8644 36.6331 16.1365 38.0951 16.4693C37.6562 17.8734 37.1092 19.3412 36.4652 20.8461C35.9946 19.9548 35.5061 19.073 35.0001 18.2012ZM26.042 9.49298C27.0454 10.578 28.0504 11.7893 29.0389 13.1036C27.0337 13.0091 25.0251 13.0087 23.0199 13.1025C24.0093 11.8002 25.0229 10.5905 26.042 9.49298ZM17.0264 18.2159C16.5267 19.0807 16.0474 19.957 15.5887 20.8441C14.9553 19.3446 14.4132 17.87 13.9706 16.4461C15.4236 16.1217 16.973 15.8564 18.5875 15.6551C18.0471 16.4963 17.5266 17.3503 17.0264 18.2159ZM18.6339 31.1909C16.9659 31.0051 15.3932 30.7535 13.9406 30.4378C14.3902 28.9885 14.9442 27.4825 15.5913 25.9508C16.0518 26.8386 16.5331 27.7155 17.0349 28.5807C17.5509 29.4701 18.0853 30.3413 18.6339 31.1909ZM26.1021 37.3516C25.0708 36.2414 24.0424 35.013 23.038 33.6919C24.0131 33.73 25.0072 33.7495 26.0175 33.7495C27.0555 33.7495 28.0816 33.7263 29.0916 33.6814C28.0999 35.0263 27.0987 36.2565 26.1021 37.3516ZM36.4857 25.8726C37.1665 27.4212 37.7402 28.9192 38.1957 30.3437C36.7193 30.68 35.1251 30.9509 33.4453 31.152C33.9836 30.3003 34.5048 29.4381 35.0087 28.5658C35.521 27.6791 36.0135 26.7811 36.4857 25.8726ZM33.1242 27.481C32.3528 28.8184 31.5381 30.1305 30.6812 31.415C29.1291 31.5248 27.5735 31.5793 26.0175 31.5784C24.4327 31.5784 22.8912 31.5292 21.4068 31.4331C20.5275 30.1515 19.6972 28.8371 18.9176 27.4929C18.1416 26.1557 17.417 24.7896 16.7449 23.3976C17.4153 22.0052 18.1379 20.6385 18.9112 19.3003L18.911 19.3005C19.684 17.962 20.5077 16.6532 21.3803 15.3771C22.8947 15.2628 24.4478 15.2032 26.0173 15.2032C27.594 15.2032 29.1493 15.2634 30.6633 15.3785C31.5271 16.6527 32.3455 17.957 33.1171 19.2888C33.893 20.624 34.6252 21.9841 35.3125 23.3668C34.6322 24.7637 33.9024 26.1359 33.1242 27.481ZM37.6121 3.23439C39.3173 4.21597 39.9805 8.17427 38.9091 13.3651C38.8406 13.6963 38.7639 14.0336 38.6803 14.3757C36.5673 13.8889 34.2731 13.5269 31.871 13.302C30.4717 11.3132 29.0217 9.50509 27.5662 7.9398C27.9477 7.5728 28.3382 7.21532 28.7375 6.86768C32.4972 3.60228 36.0111 2.31296 37.6121 3.23439ZM26.0175 18.8071C28.529 18.8071 30.565 20.8392 30.565 23.3458C30.565 25.8523 28.529 27.8844 26.0175 27.8844C23.5061 27.8844 21.47 25.8523 21.47 23.3458C21.47 20.8392 23.5061 18.8071 26.0175 18.8071Z" fill="#00D8FF"/>
</svg>
