<svg width="47" height="47" viewBox="0 0 47 47" fill="none" xmlns="http://www.w3.org/2000/svg">
<g clip-path="url(#clip0_835_174)">
<mask id="mask0_835_174" style="mask-type:luminance" maskUnits="userSpaceOnUse" x="0" y="0" width="47" height="47">
<path d="M0.850586 0.839325H46.6837V46.1066H0.850586V0.839325Z" fill="white"/>
</mask>
<g mask="url(#mask0_835_174)">
<path d="M32.6096 32.0794C34.2997 31.9059 35.583 30.4517 35.5257 28.707C35.4971 27.8684 35.1413 27.0732 34.5326 26.4879C33.9239 25.9026 33.1096 25.5724 32.2601 25.5666H32.1417C30.3332 25.6232 28.9334 27.1358 28.9907 28.939C29.0518 29.8123 29.4013 30.5667 29.9264 31.0892C27.9422 34.9878 24.9096 37.8359 20.3588 40.22C17.2689 41.8496 14.0605 42.4305 10.8541 42.0231C8.22828 41.6742 6.1868 40.5104 4.90347 38.5922C3.03768 35.7442 2.8639 32.6603 4.4375 29.5784C5.54513 27.3697 7.29634 25.7401 8.40397 24.9272C8.10356 23.9507 7.85055 22.9606 7.64582 21.9603C-0.812299 28.0676 0.0642582 36.3251 2.62709 40.2219C4.55208 43.1303 8.45935 44.9334 12.7772 44.9334C13.956 44.9413 15.1312 44.8044 16.2758 44.526C23.7428 43.0737 29.3994 38.6526 32.6077 32.0813M42.8724 24.8706C38.4399 19.695 31.9068 16.8451 24.4417 16.8451H23.5079C23.2419 16.3215 22.834 15.8812 22.3296 15.5731C21.8252 15.2651 21.244 15.1014 20.651 15.1004H20.5326C18.726 15.1589 17.3242 16.6716 17.3834 18.4747C17.4407 20.2194 18.8998 21.6132 20.649 21.6132H20.7675C21.3835 21.5817 21.9781 21.3797 22.4833 21.0301C22.9886 20.6806 23.384 20.1976 23.6244 19.6366H24.6747C29.1072 19.6366 33.3066 20.9154 37.0974 23.4164C40.0135 25.3365 42.1142 27.8356 43.2791 30.861C44.2722 33.3016 44.2149 35.6857 43.1646 37.7227C41.5299 40.8047 38.7894 42.4909 35.1724 42.4909C32.8407 42.4909 30.6235 41.793 29.4566 41.2687C28.6171 42.0084 27.7414 42.7071 26.8327 43.3623C29.3402 44.526 31.9068 45.1654 34.357 45.1654C39.9562 45.1654 44.0965 42.0835 45.672 39.0015C47.3621 35.6291 47.2456 29.8142 42.8724 24.8706ZM13.2451 33.0677C13.3024 34.8124 14.7614 36.2082 16.5107 36.2082H16.6272C18.4357 36.1516 19.8355 34.6389 19.7782 32.8357C19.7496 31.9972 19.3938 31.202 18.7851 30.6167C18.1764 30.0313 17.3621 29.7012 16.5126 29.6953H16.3942C16.2555 29.6863 16.1164 29.7055 15.9855 29.7519C13.5946 25.7986 12.6034 21.4963 12.9529 16.8432C13.1859 13.3538 14.3527 10.3304 16.3942 7.82935C18.0862 5.67915 21.3518 4.63235 23.569 4.57388C29.7507 4.45694 32.3747 12.1335 32.5504 15.2155C33.3085 15.389 34.5919 15.7964 35.4665 16.0869C34.7656 6.66749 28.9353 1.78239 23.3341 1.78239C18.0862 1.78239 13.2451 5.56221 11.3201 11.1452C8.63696 18.5879 10.3863 25.7401 13.6538 31.3815C13.3616 31.7889 13.1859 32.4283 13.2451 33.0677Z" fill="#4682B4"/>
</g>
</g>
<defs>
<clipPath id="clip0_835_174">
<rect width="45.8331" height="45.2673" fill="white" transform="translate(0.850586 0.839325)"/>
</clipPath>
</defs>
</svg>
