<svg width="48" height="49" viewBox="0 0 48 49" fill="none" xmlns="http://www.w3.org/2000/svg">
<g clip-path="url(#clip0_835_212)">
<path d="M4.26172 3.80098C4.26172 3.00363 4.5755 2.23897 5.13435 1.67534C5.69406 1.11116 6.45201 0.794556 7.24204 0.794953H21.1485C21.9383 0.794779 22.6961 1.11135 23.2558 1.67534C23.5322 1.95414 23.7516 2.28542 23.9013 2.65019C24.051 3.01495 24.128 3.40602 24.128 3.80098V16.8272H7.24167C6.4519 16.8274 5.69425 16.5108 5.13472 15.9468C4.85808 15.6681 4.63856 15.3367 4.48874 14.9719C4.33893 14.6071 4.26178 14.2159 4.26172 13.8208V3.80098ZM24.128 16.8272H41.0144C41.8043 16.8271 42.562 17.1436 43.1217 17.7076C43.3983 17.9864 43.6177 18.3177 43.7674 18.6824C43.9172 19.0472 43.9943 19.4383 43.9944 19.8333V29.8531C43.9943 30.2481 43.9172 30.6392 43.7674 31.004C43.6177 31.3687 43.3983 31.7 43.1217 31.9787C42.562 32.5427 41.8043 32.8593 41.0144 32.8591H24.128V16.8272ZM4.26172 35.8652C4.26172 35.0682 4.5755 34.3035 5.13435 33.7399C5.69391 33.1757 6.45172 32.8589 7.24167 32.8591H24.128V45.8854C24.128 46.2804 24.0509 46.6715 23.9011 47.0362C23.7514 47.401 23.5319 47.7323 23.2554 48.011C22.6957 48.5751 21.938 48.8916 21.1481 48.8914H7.24167C6.45191 48.8915 5.6943 48.575 5.13472 48.011C4.85812 47.7323 4.63863 47.401 4.48882 47.0363C4.33901 46.6715 4.26183 46.2804 4.26172 45.8854V35.8652Z" fill="#F26207"/>
</g>
<defs>
<clipPath id="clip0_835_212">
<rect width="47.5306" height="48.0965" fill="white" transform="translate(0.177734 0.794952)"/>
</clipPath>
</defs>
</svg>
