<svg width="111" height="84" viewBox="0 0 111 84" fill="none" xmlns="http://www.w3.org/2000/svg">
<path d="M52.3498 63.1269C52.2977 63.23 52.2457 63.3125 52.3498 63.1269ZM95.5582 48.1738C92.0699 48.1726 88.6281 48.9665 85.4989 50.4941C84.4756 48.4488 83.4176 46.6613 83.2442 45.3206C83.0361 43.7566 82.8106 42.8284 83.0534 40.9722C83.2962 39.1159 84.3889 36.4863 84.3715 36.2972C84.3542 36.1081 84.1287 35.1628 81.8914 35.1456C79.654 35.1284 77.7289 35.5753 77.5051 36.1597C77.11 37.2276 76.8026 38.3255 76.5859 39.4425C76.187 41.4534 72.113 48.6378 69.8062 52.3847C69.0431 50.9238 68.4014 49.6347 68.2626 48.6034C68.0545 47.0394 67.8291 46.1112 68.0719 44.255C68.3147 42.3987 69.4073 39.7691 69.39 39.58C69.3726 39.3909 69.1472 38.4456 66.9116 38.4284C64.676 38.4113 62.7491 38.8581 62.5236 39.4425C62.2981 40.0269 62.0553 41.4019 61.6044 42.7253C61.1534 44.0488 55.7266 56.0112 54.3061 59.1222C53.5777 60.7034 52.9533 61.9753 52.5024 62.8347C52.433 62.9722 52.381 63.0581 52.3463 63.1269C52.3983 63.0409 52.433 62.955 52.433 62.9894C52.0514 63.7284 51.826 64.1409 51.826 64.1409V64.1581C51.5311 64.7081 51.2016 65.2066 51.0455 65.2066C50.9414 65.2066 50.716 63.7628 51.0975 61.7862C51.9127 57.6269 53.8379 51.1644 53.8205 50.9409C53.8032 50.8206 54.1847 49.7034 52.5544 49.1019C50.9761 48.5347 50.4038 49.48 50.265 49.48C50.1263 49.48 50.0222 49.8237 50.0222 49.8237C50.0222 49.8237 51.7739 42.5362 46.6593 42.5362C43.468 42.5362 39.028 46.0081 36.8462 49.1534C35.476 49.8925 32.5102 51.4909 29.3884 53.1925C28.1916 53.8456 26.9602 54.5159 25.7982 55.1519C25.7115 55.0659 25.6421 54.98 25.5554 54.8941C19.3481 48.3284 7.88732 43.6878 8.37294 34.8706C8.54638 31.6566 9.67373 23.2175 30.4116 12.9738C47.4085 4.58625 60.9974 6.88938 63.337 12.0112C66.7017 19.3159 56.0717 32.9113 38.421 34.8706C31.6934 35.6097 28.157 33.0316 27.2724 32.0691C26.3532 31.055 26.2145 31.0034 25.8676 31.1925C25.2952 31.5019 25.6595 32.3956 25.8676 32.9284C26.3879 34.2863 28.5559 36.6925 32.2484 37.8956C35.4916 38.9441 43.3796 39.5284 52.9169 35.8675C63.6319 31.7769 71.9725 20.3816 69.527 10.8425C67.0364 1.14875 50.8166 -2.03094 35.4795 3.36594C26.3411 6.58 16.4586 11.6331 9.3494 18.2159C0.904726 26.0534 -0.446352 32.8769 0.108648 35.73C2.0841 45.8534 16.1638 52.4534 21.7987 57.3347C21.5212 57.4894 21.2611 57.6269 21.0183 57.7644C18.193 59.1566 7.45893 64.7253 4.77238 70.6034C1.73723 77.2722 5.27535 82.0503 7.59768 82.7034C14.8456 84.6972 22.267 81.105 26.2544 75.2097C30.2417 69.3144 29.7578 61.6144 27.9193 58.1081C27.902 58.0566 27.8673 58.0222 27.85 57.9706C28.5784 57.5409 29.3242 57.1113 30.07 56.6816C31.5078 55.8394 32.9126 55.0659 34.144 54.3956C33.4503 56.2519 32.9473 58.4863 32.6871 61.7175C32.375 65.4988 33.9532 70.3972 35.9998 72.3222C36.9017 73.1644 37.9926 73.1816 38.669 73.1816C41.0624 73.1816 42.1378 71.2222 43.3327 68.8847C44.807 66.0316 46.1077 62.7144 46.1077 62.7144C46.1077 62.7144 44.4774 71.6863 48.9348 71.6863C50.5634 71.6863 52.1937 69.6066 52.9238 68.5409V68.5581C52.9238 68.5581 52.9585 68.4894 53.0452 68.3519C53.2187 68.0941 53.3054 67.9394 53.3054 67.9394V67.8878C53.9645 66.7706 55.404 64.2097 57.5702 59.9816C60.3799 54.5159 63.0665 47.6925 63.0665 47.6925C63.3261 49.1925 63.6853 50.6738 64.1418 52.1269C64.6274 53.7597 65.6507 55.5472 66.4658 57.2831C65.8068 58.1769 65.4079 58.6925 65.4079 58.6925C65.4091 58.7057 65.4153 58.718 65.4252 58.7269C64.9049 59.4144 64.3152 60.1534 63.7082 60.8753C61.4899 63.4878 58.8519 66.4784 58.5051 67.3378C58.0888 68.3519 58.1929 69.1081 58.9907 69.6925C59.5804 70.1394 60.621 70.2081 61.7119 70.1222C63.7064 69.9847 65.1113 69.5034 65.7877 69.1941C67.0347 68.7509 68.2132 68.1378 69.2894 67.3722C71.4574 65.7909 72.7755 63.5222 72.6541 60.5316C72.5847 58.8816 72.0471 57.2316 71.388 55.6847C71.5788 55.4097 71.7869 55.1175 71.9777 54.8253C75.41 49.8581 78.0636 44.4063 78.0636 44.4063C78.3232 45.9062 78.6824 47.3876 79.1389 48.8406C79.5552 50.2328 80.3686 51.7625 81.1144 53.2578C77.8902 55.8531 75.8956 58.8609 75.2019 60.8375C73.9184 64.4984 74.9244 66.1484 76.8149 66.5266C77.6647 66.6984 78.8788 66.3031 79.7806 65.925C81.12 65.4829 82.383 64.8394 83.5251 64.0172C85.6931 62.4359 87.79 60.2188 87.6512 57.2109C87.5992 55.8531 87.2176 54.4953 86.7147 53.1891C89.4376 52.0547 92.974 51.4359 97.4834 51.9516C107.14 53.0687 109.031 59.05 108.667 61.5422C108.302 64.0344 106.273 65.4266 105.597 65.8391C104.92 66.2516 104.712 66.4062 104.764 66.7156C104.851 67.1625 105.163 67.1453 105.736 67.0422C106.533 66.9047 110.798 65.0141 110.989 60.3906C111.266 54.5469 105.597 48.1187 95.553 48.1703L95.5582 48.1738ZM21.1223 73.0441C17.9328 76.4987 13.4581 77.805 11.5347 76.705C9.4708 75.5156 10.286 70.4316 14.2213 66.75C16.6147 64.5156 19.7001 62.4531 21.7467 61.1813C22.215 60.9063 22.8914 60.4938 23.7239 59.9953C23.8626 59.9094 23.932 59.875 23.932 59.875C24.0881 59.7719 24.2616 59.6859 24.435 59.5828C25.8728 64.8078 24.487 69.4141 21.1223 73.0406V73.0441ZM44.4254 57.3347C43.3154 60.0331 40.9757 66.9081 39.5535 66.5472C38.3395 66.2378 37.5937 60.9956 39.3107 55.8394C40.1779 53.2441 42.0164 50.1503 43.109 48.9472C44.859 47.005 46.7841 46.3862 47.2351 47.1597C47.8421 48.1737 45.1191 55.6503 44.4254 57.3347ZM63.677 66.4441C63.2087 66.6847 62.7751 66.8394 62.567 66.7191C62.4109 66.6331 62.7577 66.3066 62.7577 66.3066C62.7577 66.3066 65.1685 63.7456 66.1224 62.5769C66.6774 61.8894 67.3192 61.0816 68.0112 60.1878C68.0112 60.2738 68.0285 60.3597 68.0285 60.4628C68.006 63.5394 65.0246 65.6191 63.6718 66.4441H63.677ZM78.5197 63.0925C78.1729 62.8519 78.2249 62.0441 79.3869 59.5347C79.8379 58.555 80.8768 56.905 82.6822 55.3237C82.8866 55.9223 82.9977 56.5483 83.0118 57.18C82.9944 61.0472 80.2021 62.4909 78.5215 63.0925H78.5197Z" fill="#F5F5F5"/>
</svg>
