<svg width="49" height="49" viewBox="0 0 49 49" fill="none" xmlns="http://www.w3.org/2000/svg">
<g clip-path="url(#clip0_835_214)">
<path d="M11.0874 30.4787C11.0874 33.233 8.84119 35.4826 6.08654 35.4826C3.33227 35.4826 1.08301 33.233 1.08301 30.4787C1.08301 27.7244 3.33264 25.4748 6.08692 25.4748H11.0878L11.0874 30.4787ZM13.6084 30.4787C13.6084 27.7244 15.858 25.4748 18.6123 25.4748C21.3666 25.4748 23.6162 27.724 23.6162 30.4787V43.0044C23.6162 45.7587 21.3669 48.0083 18.6123 48.0083C15.858 48.0083 13.6084 45.7587 13.6084 43.0044V30.4787Z" fill="#DE1C59"/>
<path d="M18.6123 10.3894C15.858 10.3894 13.6084 8.14313 13.6084 5.38848C13.6084 2.63421 15.858 0.384949 18.6123 0.384949C21.3666 0.384949 23.6162 2.63459 23.6162 5.38886V10.3898L18.6123 10.3894ZM18.6123 12.9103C21.3666 12.9103 23.6162 15.16 23.6162 17.9142C23.6162 20.6685 21.3669 22.9181 18.6123 22.9181H6.08654C3.33227 22.9181 1.08301 20.6689 1.08301 17.9142C1.08301 15.16 3.33264 12.9103 6.08692 12.9103H18.6123Z" fill="#35C5F0"/>
<path d="M38.7016 17.9142C38.7016 15.16 40.9479 12.9103 43.7025 12.9103C46.4568 12.9103 48.7064 15.16 48.7064 17.9142C48.7064 20.6685 46.4568 22.9181 43.7025 22.9181H38.7016V17.9142ZM36.1807 17.9142C36.1807 20.6685 33.931 22.9181 31.1768 22.9181C28.4225 22.9181 26.1729 20.6689 26.1729 17.9142V5.38848C26.1729 2.63421 28.4221 0.384949 31.1768 0.384949C33.931 0.384949 36.1807 2.63459 36.1807 5.38886V17.9142Z" fill="#2EB57D"/>
<path d="M31.1768 38.0035C33.931 38.0035 36.1807 40.2498 36.1807 43.0044C36.1807 45.7587 33.931 48.0083 31.1768 48.0083C28.4225 48.0083 26.1729 45.7587 26.1729 43.0044V38.0035H31.1768ZM31.1768 35.4826C28.4225 35.4826 26.1729 33.233 26.1729 30.4787C26.1729 27.7244 28.4221 25.4748 31.1768 25.4748H43.7025C46.4568 25.4748 48.7064 27.724 48.7064 30.4787C48.7064 33.233 46.4568 35.4826 43.7025 35.4826H31.1768Z" fill="#EBB02E"/>
</g>
<defs>
<clipPath id="clip0_835_214">
<rect width="48.0965" height="48.0965" fill="white" transform="translate(0.84668 0.148224)"/>
</clipPath>
</defs>
</svg>
