<svg width="72" height="72" viewBox="0 0 72 72" fill="none" xmlns="http://www.w3.org/2000/svg">
<g clip-path="url(#clip0_813_2094)">
<path d="M35.6674 14.9536C26.2317 14.9536 20.3365 19.6695 17.9758 29.1052C21.513 24.3887 25.6423 22.6201 30.3588 23.7993C33.0518 24.4705 34.9763 26.4232 37.1076 28.5871C40.5762 32.1072 44.5911 36.1824 53.3589 36.1824C62.7941 36.1824 68.6898 31.4659 71.0505 22.028C67.5128 26.7472 63.384 28.5158 58.667 27.3366C55.9745 26.6648 54.0522 24.7127 51.9182 22.5488C48.4517 19.0287 44.438 14.9536 35.6674 14.9536ZM17.9758 36.1824C8.54062 36.1824 2.6449 40.8988 0.28418 50.3367C3.82139 45.6175 7.95017 43.8489 12.6672 45.0281C15.3602 45.6999 17.2847 47.652 19.416 49.8159C22.8846 53.336 26.8995 57.4112 35.6674 57.4112C45.1025 57.4112 50.9982 52.6952 53.3589 43.2595C49.8212 47.976 45.6924 49.7446 40.9754 48.5654C38.2829 47.8942 36.3606 45.9415 34.2266 43.7776C30.7601 40.2575 26.7464 36.1824 17.9758 36.1824Z" fill="#38BDF8"/>
</g>
<defs>
<clipPath id="clip0_813_2094">
<rect width="70.7663" height="70.7663" fill="white" transform="translate(0.282227 0.799194)"/>
</clipPath>
</defs>
</svg>
