<svg width="51" height="52" viewBox="0 0 51 52" fill="none" xmlns="http://www.w3.org/2000/svg">
<g clip-path="url(#clip0_835_172)">
<path d="M0.564794 1.53519C0.461122 1.11559 0.850332 0.740902 1.2658 0.860676L13.37 4.34425C13.4787 4.344 13.5851 4.37469 13.677 4.43272L37.5489 11.303C37.6477 11.305 37.7453 11.3332 37.8302 11.3839L49.9351 14.8679C50.351 14.9877 50.4811 15.5127 50.1691 15.8125L13.6406 50.9378C13.3288 51.2376 12.8093 51.0875 12.7056 50.6675L6.64627 26.1464C6.63815 26.1212 6.63178 26.0954 6.62721 26.0694L0.564794 1.53519ZM10.9332 38.8112L13.563 49.4534L21.4822 41.8382L10.9332 38.8112ZM19.0905 30.3951L11.4232 37.7828L21.6372 40.7142L19.0905 30.3951ZM20.2286 30.3161L22.7673 40.6026L30.4136 33.25L20.2286 30.3161ZM7.96095 26.7824L10.5108 37.1019L18.1689 29.7229L7.96095 26.7824ZM28.1322 21.6729L20.342 29.1794L30.7234 32.1699L28.1322 21.6729ZM29.2238 21.4059L31.815 31.9026L39.6266 24.3912L29.2238 21.4059ZM16.0787 18.1897L8.27178 25.7029L18.6723 28.6986L16.0787 18.1897ZM17.166 17.9064L19.7129 28.2253L27.3802 20.8374L17.166 17.9064ZM4.90193 14.402L7.49374 24.8922L15.2951 17.3845L4.90193 14.402ZM37.2276 12.9457L29.5603 20.3334L39.7743 23.2648L37.2276 12.9457ZM38.3232 12.6948L40.9063 23.1607L48.6882 15.6779L38.3232 12.6948ZM25.1239 9.48543L17.4913 16.8308L27.6572 19.7479L25.1239 9.48543ZM26.2134 9.20952L28.7638 19.5409L36.4332 12.1508L26.2134 9.20952ZM13.0621 5.98688L5.39481 13.3748L15.6088 16.3058L13.0621 5.98688ZM14.1587 5.74014L16.6992 16.0332L24.3478 8.67267L14.1587 5.74014ZM1.88881 2.20892L4.48024 12.696L12.2648 5.19512L1.88881 2.20892Z" fill="#E6E6CE"/>
</g>
<defs>
<clipPath id="clip0_835_172">
<rect width="49.794" height="50.3598" fill="white" transform="translate(0.547852 0.83844)"/>
</clipPath>
</defs>
</svg>
