<svg width="45" height="45" viewBox="0 0 45 45" fill="none" xmlns="http://www.w3.org/2000/svg">
<g clip-path="url(#clip0_835_163)">
<path d="M4.14829 0.703735H41.3877C43.2921 0.703735 44.8358 2.24745 44.8358 4.15183V41.3912C44.8358 43.2956 43.2921 44.8393 41.3877 44.8393H4.14829C2.24391 44.8393 0.700195 43.2956 0.700195 41.3912V4.15183C0.700195 2.24745 2.24391 0.703735 4.14829 0.703735Z" fill="#3178C6"/>
<path d="M26.65 35.2666V40.0284C27.4244 40.4252 28.3404 40.7228 29.3977 40.9213C30.4551 41.1197 31.5695 41.2188 32.7412 41.2188C33.8829 41.2188 34.9676 41.1097 35.9952 40.8914C37.0227 40.6732 37.9238 40.3135 38.6981 39.8127C39.4726 39.3117 40.0856 38.6569 40.5375 37.8483C40.9892 37.0399 41.2151 36.0405 41.2151 34.85C41.2151 33.987 41.0859 33.2305 40.8278 32.5807C40.5726 31.9353 40.1931 31.3463 39.7108 30.8471C39.2245 30.3411 38.6411 29.8874 37.9611 29.4855C37.281 29.0838 36.5139 28.7043 35.66 28.3473C35.0345 28.0892 34.4737 27.8388 33.9772 27.5958C33.4808 27.3527 33.0588 27.1047 32.7114 26.8517C32.3638 26.5987 32.0957 26.3308 31.9071 26.0481C31.7185 25.7653 31.6242 25.4455 31.6242 25.0883C31.6242 24.7609 31.7085 24.4659 31.8773 24.203C32.0461 23.9401 32.2845 23.7144 32.5922 23.526C32.9 23.3374 33.2772 23.1912 33.7241 23.0869C34.1708 22.9827 34.6673 22.9307 35.2133 22.9307C35.6105 22.9307 36.03 22.9605 36.4717 23.02C36.9136 23.0794 37.3578 23.1712 37.8047 23.2953C38.2502 23.4188 38.6857 23.5755 39.1077 23.7641C39.517 23.9454 39.9084 24.1646 40.2768 24.4187V19.9694C39.552 19.6917 38.7602 19.4858 37.9014 19.3519C37.0427 19.2179 36.0572 19.151 34.9452 19.151C33.8134 19.151 32.7412 19.2726 31.7285 19.5157C30.7158 19.7586 29.8246 20.138 29.0552 20.6539C28.2857 21.1699 27.6777 21.8271 27.2308 22.6257C26.7841 23.4243 26.5607 24.379 26.5607 25.4902C26.5607 26.9087 26.9701 28.119 27.7894 29.121C28.6085 30.1229 29.8519 30.9711 31.5199 31.6655C32.1356 31.9163 32.7464 32.1793 33.3517 32.4543C33.9177 32.7122 34.4066 32.9799 34.8187 33.2577C35.2307 33.5354 35.5559 33.838 35.7941 34.1654C36.0324 34.4928 36.1515 34.8649 36.1515 35.2816C36.1535 35.5814 36.0764 35.8766 35.9281 36.1372C35.7793 36.3999 35.5533 36.6282 35.2505 36.8216C34.9478 37.0151 34.5704 37.1663 34.1187 37.2754C33.667 37.3845 33.1382 37.4392 32.5326 37.4392C31.5001 37.4392 30.4775 37.2582 29.4648 36.8959C28.4519 36.5339 27.5137 35.9908 26.65 35.2666ZM18.7131 23.4167H24.8366V19.4958H7.76855V23.4167H13.8622V40.874H18.7131V23.4167Z" fill="white"/>
</g>
<defs>
<clipPath id="clip0_835_163">
<rect width="44.1356" height="44.1356" fill="white" transform="translate(0.700195 0.703735)"/>
</clipPath>
</defs>
</svg>
