<svg width="128" height="30" viewBox="0 0 128 30" fill="none" xmlns="http://www.w3.org/2000/svg">
<path d="M64.144 7.789C59.168 7.789 55.581 11.034 55.581 15.901C55.581 20.768 59.615 24.014 64.595 24.014C67.601 24.014 70.251 22.824 71.892 20.819L68.444 18.827C67.534 19.823 66.15 20.404 64.595 20.404C62.436 20.404 60.602 19.277 59.921 17.474H72.55C72.6538 16.9547 72.7067 16.4266 72.708 15.897C72.708 11.034 69.125 7.789 64.144 7.789ZM59.885 14.324C60.448 12.526 61.99 11.394 64.145 11.394C66.303 11.394 67.845 12.526 68.404 14.324H59.885ZM58.866 2.831L46.377 24.465L33.884 2.83H38.567L46.373 16.351L54.179 2.83L58.866 2.831ZM16.654 0.577999L33.307 29.423H0L16.654 0.577999ZM90.826 15.902C90.826 18.606 92.593 20.409 95.333 20.409C97.19 20.409 98.583 19.566 99.299 18.191L102.761 20.188C101.327 22.576 98.641 24.014 95.333 24.014C90.353 24.014 86.77 20.769 86.77 15.902C86.77 11.034 90.357 7.789 95.333 7.789C98.641 7.789 101.323 9.227 102.761 11.615L99.299 13.612C98.583 12.237 97.19 11.394 95.333 11.394C92.597 11.394 90.826 13.197 90.826 15.902ZM128 2.83V23.562H123.944V2.831L128 2.83ZM112.676 7.788C107.7 7.788 104.113 11.033 104.113 15.9C104.113 20.767 108.151 24.013 113.127 24.013C116.133 24.013 118.783 22.823 120.424 20.818L116.976 18.826C116.066 19.822 114.682 20.403 113.126 20.403C110.968 20.403 109.134 19.276 108.453 17.473H121.082C121.185 16.9537 121.238 16.4255 121.239 15.896C121.239 11.033 117.656 7.788 112.676 7.788ZM108.416 14.323C108.98 12.525 110.517 11.393 112.676 11.393C114.835 11.393 116.376 12.525 116.936 14.323H108.416ZM85.417 8.238V12.606C84.9492 12.4644 84.4637 12.39 83.975 12.385C81.357 12.385 79.468 14.188 79.468 16.892V23.562H75.412V8.24H79.468V12.387C79.468 10.097 82.132 8.24 85.418 8.24L85.417 8.238Z" fill="#F5F5F5"/>
</svg>
