<svg width="129" height="129" viewBox="0 0 129 129" fill="none" xmlns="http://www.w3.org/2000/svg">
<g clip-path="url(#clip0_908_204)">
<mask id="mask0_908_204" style="mask-type:alpha" maskUnits="userSpaceOnUse" x="0" y="1" width="129" height="128">
<path fill-rule="evenodd" clip-rule="evenodd" d="M91.072 127.9C92.0906 128.297 93.18 128.48 94.2724 128.438C95.3649 128.396 96.437 128.13 97.422 127.656L123.775 114.975C125.132 114.321 126.277 113.298 127.079 112.023C127.88 110.748 128.305 109.272 128.305 107.766V21.7828C128.305 20.2764 127.88 18.8005 127.079 17.525C126.278 16.2495 125.132 15.2262 123.775 14.5728L97.422 1.89376C95.9329 1.17727 94.2579 0.941365 92.6289 1.2187C90.9998 1.49604 89.4972 2.2729 88.329 3.44176L37.879 49.4678L15.905 32.7868C14.9138 32.0341 13.6903 31.6523 12.447 31.7074C11.2036 31.7626 10.0188 32.2513 9.09805 33.0888L2.05005 39.4998C1.50079 39.9993 1.06186 40.608 0.76132 41.2869C0.46078 41.9658 0.305254 42.7 0.304689 43.4424C0.304124 44.1849 0.458534 44.9193 0.75804 45.5986C1.05755 46.278 1.49555 46.8874 2.04405 47.3878L21.101 64.7738L2.04505 82.1608C1.49685 82.6612 1.05911 83.2706 0.759787 83.9498C0.460467 84.6291 0.306158 85.3633 0.306722 86.1056C0.307287 86.8479 0.462713 87.5819 0.763067 88.2607C1.06342 88.9395 1.50209 89.5481 2.05105 90.0478L9.09905 96.4588C10.0195 97.2965 11.2043 97.7856 12.4478 97.8409C13.6912 97.8963 14.9148 97.5144 15.906 96.7618L37.88 80.0818L88.33 126.107C89.1101 126.888 90.0432 127.499 91.072 127.9ZM96.324 35.7168L58.045 64.7738L96.325 93.8318L96.324 35.7168Z" fill="white"/>
</mask>
<g mask="url(#mask0_908_204)">
<path d="M123.775 14.5938L97.4013 1.89377C95.9117 1.1768 94.2359 0.940637 92.6061 1.21797C90.9763 1.49531 89.473 2.27243 88.3043 3.44177L1.96634 82.1608C1.41774 82.661 0.979624 83.2702 0.680038 83.9495C0.380453 84.6288 0.225999 85.3632 0.226564 86.1056C0.227129 86.848 0.3827 87.5821 0.683318 88.261C0.983937 88.9398 1.42298 89.5484 1.97234 90.0478L9.02434 96.4588C9.94566 97.2965 11.1311 97.7854 12.3751 97.8408C13.6191 97.8961 14.8433 97.5144 15.8353 96.7618L119.806 17.8868C123.294 15.2408 128.304 17.7288 128.304 22.1068V21.8008C128.304 20.2949 127.879 18.8195 127.078 17.5444C126.277 16.2694 125.132 15.2472 123.775 14.5938Z" fill="#0065A9"/>
<g filter="url(#filter0_d_908_204)">
<path d="M123.775 114.955L97.4013 127.653C95.9119 128.37 94.2363 128.606 92.6065 128.329C90.9767 128.052 89.4733 127.276 88.3043 126.107L1.96634 47.3868C1.41774 46.8865 0.979624 46.2773 0.680038 45.598C0.380453 44.9187 0.225999 44.1843 0.226564 43.4419C0.227129 42.6995 0.3827 41.9654 0.683318 41.2866C0.983937 40.6077 1.42298 39.9991 1.97234 39.4998L9.02434 33.0887C9.94566 32.251 11.1311 31.7621 12.3751 31.7067C13.6191 31.6514 14.8433 32.0331 15.8353 32.7858L119.806 111.66C123.294 114.307 128.304 111.819 128.304 107.441V107.747C128.304 109.253 127.879 110.728 127.078 112.003C126.277 113.278 125.132 114.301 123.775 114.955Z" fill="#007ACC"/>
</g>
<g filter="url(#filter1_d_908_204)">
<path d="M97.4027 127.656C95.9127 128.372 94.2368 128.608 92.6069 128.331C90.977 128.053 89.4737 127.276 88.3047 126.107C91.2567 129.059 96.3047 126.968 96.3047 122.793V6.75377C96.3047 2.57877 91.2567 0.487771 88.3047 3.44077C89.4737 2.27157 90.977 1.49449 92.6069 1.21699C94.2368 0.939491 95.9127 1.17529 97.4027 1.89177L123.772 14.5738C125.13 15.2267 126.275 16.2499 127.077 17.5254C127.879 18.801 128.305 20.2771 128.305 21.7838V107.766C128.305 109.272 127.879 110.749 127.077 112.024C126.275 113.3 125.13 114.323 123.772 114.976L97.4027 127.656Z" fill="#1F9CF0"/>
</g>
<path opacity="0.25" fill-rule="evenodd" clip-rule="evenodd" d="M90.9944 127.9C92.0129 128.297 93.1021 128.48 94.1943 128.438C95.2866 128.396 96.3585 128.13 97.3434 127.656L123.696 114.975C125.054 114.321 126.199 113.298 127 112.023C127.802 110.747 128.227 109.271 128.226 107.765V21.7828C128.227 20.2764 127.802 18.8005 127 17.525C126.199 16.2495 125.054 15.2262 123.696 14.5728L97.3434 1.89376C95.8543 1.17727 94.1793 0.941365 92.5502 1.2187C90.9212 1.49604 89.4186 2.2729 88.2504 3.44176L37.8004 49.4678L15.8264 32.7878C14.8352 32.0351 13.6117 31.6533 12.3684 31.7084C11.125 31.7636 9.94014 32.2523 9.01944 33.0898L1.97144 39.5008C1.42232 40.0004 0.983509 40.6091 0.683058 41.288C0.382607 41.9669 0.227129 42.701 0.226564 43.4434C0.225999 44.1858 0.380361 44.9202 0.679779 45.5995C0.979197 46.2789 1.41708 46.8883 1.96544 47.3888L21.0224 64.7738L1.96644 82.1598C1.41795 82.6602 0.979937 83.2695 0.68043 83.9489C0.380924 84.6282 0.226514 85.3626 0.227079 86.1051C0.227644 86.8475 0.383171 87.5817 0.68371 88.2606C0.98425 88.9395 1.42318 89.5482 1.97244 90.0478L9.02044 96.4588C9.94102 97.2964 11.1258 97.7853 12.3692 97.8406C13.6126 97.896 14.8361 97.5143 15.8274 96.7618L37.8024 80.0808L88.2524 126.107C89.0322 126.888 89.966 127.499 90.9944 127.9ZM96.2464 35.7158L57.9664 64.7738L96.2464 93.8308V35.7158Z" fill="url(#paint0_linear_908_204)"/>
</g>
</g>
<defs>
<filter id="filter0_d_908_204" x="-8.10744" y="23.3675" width="144.746" height="113.409" filterUnits="userSpaceOnUse" color-interpolation-filters="sRGB">
<feFlood flood-opacity="0" result="BackgroundImageFix"/>
<feColorMatrix in="SourceAlpha" type="matrix" values="0 0 0 0 0 0 0 0 0 0 0 0 0 0 0 0 0 0 127 0" result="hardAlpha"/>
<feOffset/>
<feGaussianBlur stdDeviation="4.167"/>
<feColorMatrix type="matrix" values="0 0 0 0 0 0 0 0 0 0 0 0 0 0 0 0 0 0 0.25 0"/>
<feBlend mode="overlay" in2="BackgroundImageFix" result="effect1_dropShadow_908_204"/>
<feBlend mode="normal" in="SourceGraphic" in2="effect1_dropShadow_908_204" result="shape"/>
</filter>
<filter id="filter1_d_908_204" x="79.9707" y="-7.23018" width="56.668" height="144.008" filterUnits="userSpaceOnUse" color-interpolation-filters="sRGB">
<feFlood flood-opacity="0" result="BackgroundImageFix"/>
<feColorMatrix in="SourceAlpha" type="matrix" values="0 0 0 0 0 0 0 0 0 0 0 0 0 0 0 0 0 0 127 0" result="hardAlpha"/>
<feOffset/>
<feGaussianBlur stdDeviation="4.167"/>
<feColorMatrix type="matrix" values="0 0 0 0 0 0 0 0 0 0 0 0 0 0 0 0 0 0 0.25 0"/>
<feBlend mode="overlay" in2="BackgroundImageFix" result="effect1_dropShadow_908_204"/>
<feBlend mode="normal" in="SourceGraphic" in2="effect1_dropShadow_908_204" result="shape"/>
</filter>
<linearGradient id="paint0_linear_908_204" x1="64.2264" y1="1.10376" x2="64.2264" y2="128.444" gradientUnits="userSpaceOnUse">
<stop stop-color="white"/>
<stop offset="1" stop-color="white" stop-opacity="0"/>
</linearGradient>
<clipPath id="clip0_908_204">
<rect width="128" height="128" fill="white" transform="translate(0.304688 0.773743)"/>
</clipPath>
</defs>
</svg>
