<svg width="165" height="198" viewBox="0 0 165 198" fill="none" xmlns="http://www.w3.org/2000/svg">
<path fill-rule="evenodd" clip-rule="evenodd" d="M0 15.6C0 11.4626 1.62776 7.4947 4.5252 4.56913C7.42264 1.64357 11.3524 0 15.45 0H149.35C153.448 0 157.377 1.64357 160.275 4.56913C163.172 7.4947 164.8 11.4626 164.8 15.6V182C164.8 186.137 163.172 190.105 160.275 193.031C157.377 195.956 153.448 197.6 149.35 197.6H15.45C11.3524 197.6 7.42264 195.956 4.5252 193.031C1.62776 190.105 0 186.137 0 182V15.6ZM15.45 10.4C14.0841 10.4 12.7742 10.9479 11.8084 11.923C10.8426 12.8982 10.3 14.2209 10.3 15.6V182C10.3 183.379 10.8426 184.702 11.8084 185.677C12.7742 186.652 14.0841 187.2 15.45 187.2H149.35C150.716 187.2 152.026 186.652 152.992 185.677C153.957 184.702 154.5 183.379 154.5 182V15.6C154.5 14.2209 153.957 12.8982 152.992 11.923C152.026 10.9479 150.716 10.4 149.35 10.4H15.45Z" fill="#DFD1E1"/>
<path fill-rule="evenodd" clip-rule="evenodd" d="M61.8008 171.6C61.8008 170.221 62.3434 168.898 63.3092 167.923C64.275 166.948 65.5849 166.4 66.9508 166.4H97.8508C99.2166 166.4 100.527 166.948 101.492 167.923C102.458 168.898 103.001 170.221 103.001 171.6C103.001 172.979 102.458 174.302 101.492 175.277C100.527 176.252 99.2166 176.8 97.8508 176.8H66.9508C65.5849 176.8 64.275 176.252 63.3092 175.277C62.3434 174.302 61.8008 172.979 61.8008 171.6Z" fill="#DFD1E1"/>
</svg>
