<svg width="198" height="165" viewBox="0 0 198 165" fill="none" xmlns="http://www.w3.org/2000/svg">
<path fill-rule="evenodd" clip-rule="evenodd" d="M15.6 164.8C11.4626 164.8 7.4947 163.172 4.56913 160.275C1.64357 157.377 0 153.447 0 149.35L0 15.4498C0 11.3522 1.64357 7.42245 4.56913 4.52502C7.4947 1.62759 11.4626 -0.000183105 15.6 -0.000183105H182C186.137 -0.000183105 190.105 1.62759 193.031 4.52502C195.956 7.42245 197.6 11.3522 197.6 15.4498V149.35C197.6 153.447 195.956 157.377 193.031 160.275C190.105 163.172 186.137 164.8 182 164.8H15.6ZM10.4 149.35C10.4 150.716 10.9479 152.026 11.923 152.991C12.8982 153.957 14.2209 154.5 15.6 154.5H182C183.379 154.5 184.702 153.957 185.677 152.991C186.652 152.026 187.2 150.716 187.2 149.35V15.4498C187.2 14.084 186.652 12.774 185.677 11.8082C184.702 10.8424 183.379 10.2998 182 10.2998H15.6C14.2209 10.2998 12.8982 10.8424 11.923 11.8082C10.9479 12.774 10.4 14.084 10.4 15.4498L10.4 149.35Z" fill="#DFD1E1"/>
<path fill-rule="evenodd" clip-rule="evenodd" d="M77.4004 141.8C77.4004 140.42 77.943 139.098 78.9088 138.123C79.8746 137.147 81.1845 136.6 82.5504 136.6H113.45C114.816 136.6 116.126 137.147 117.092 138.123C118.058 139.098 118.6 140.42 118.6 141.8C118.6 143.179 118.058 144.501 117.092 145.477C116.126 146.452 114.816 147 113.45 147H82.5504C81.1845 147 79.8746 146.452 78.9088 145.477C77.943 144.501 77.4004 143.179 77.4004 141.8Z" fill="#DFD1E1"/>
</svg>
