<svg width="377" height="258" viewBox="0 0 377 258" fill="none" xmlns="http://www.w3.org/2000/svg">
<path fill-rule="evenodd" clip-rule="evenodd" d="M50.1651 32.1893C50.1651 30.4819 50.8258 28.8444 52.0017 27.637C53.1777 26.4297 54.7727 25.7514 56.4357 25.7514H319.803C321.466 25.7514 323.061 26.4297 324.237 27.637C325.413 28.8444 326.073 30.4819 326.073 32.1893V218.887H50.1651V32.1893ZM56.4357 0C39.1288 0 25.0826 14.4208 25.0826 32.1893V231.763H0V244.639C0 248.053 1.32131 251.328 3.67325 253.743C6.0252 256.158 9.21512 257.514 12.5413 257.514H363.697C367.023 257.514 370.213 256.158 372.565 253.743C374.917 251.328 376.238 248.053 376.238 244.639V231.763H351.156V32.1893C351.156 14.4208 337.109 0 319.803 0H56.4357Z" fill="#DFD1E1"/>
</svg>
