<svg width="379" height="306" viewBox="0 0 379 306" fill="none" xmlns="http://www.w3.org/2000/svg">
<path fill-rule="evenodd" clip-rule="evenodd" d="M25.2667 32C25.2667 30.3026 25.9322 28.6748 27.1168 27.4745C28.3014 26.2743 29.908 25.6 31.5833 25.6H347.417C349.092 25.6 350.699 26.2743 351.883 27.4745C353.068 28.6748 353.733 30.3026 353.733 32V224C353.733 225.697 353.068 227.325 351.883 228.526C350.699 229.726 349.092 230.4 347.417 230.4H31.5833C29.908 230.4 28.3014 229.726 27.1168 228.526C25.9322 227.325 25.2667 225.697 25.2667 224V32ZM31.5833 0C14.1493 0 0 14.336 0 32V224C0 241.664 14.1493 256 31.5833 256H128.178L122.038 289.254C121.663 291.286 121.735 293.376 122.247 295.377C122.759 297.377 123.7 299.239 125.002 300.829C126.305 302.42 127.937 303.701 129.782 304.58C131.628 305.46 133.642 305.918 135.682 305.92H243.318C245.358 305.918 247.372 305.46 249.218 304.58C251.063 303.701 252.695 302.42 253.998 300.829C255.3 299.239 256.24 297.377 256.753 295.377C257.265 293.376 257.337 291.286 256.962 289.254L250.822 256H347.417C364.851 256 379 241.664 379 224V32C379 14.336 364.851 0 347.417 0H31.5833ZM227.653 256H151.347L146.345 282.88H232.655L227.653 256Z" fill="#DFD1E1"/>
</svg>
