<svg width="66" height="65" viewBox="0 0 66 65" fill="none" xmlns="http://www.w3.org/2000/svg">
<path d="M26.2293 28.4396L30.5969 24.5126C31.7911 23.4367 32.6305 22.0352 33.0073 20.4879C33.3841 18.9405 33.2811 17.318 32.7115 15.8285L30.849 10.9477C30.1532 9.12557 28.7756 7.63232 26.997 6.77218C25.2184 5.91205 23.1725 5.74975 21.2762 6.31834C14.2979 8.41353 8.93404 14.7789 10.5851 22.3376C11.6709 27.3101 13.7489 33.5518 17.6854 40.1926C21.63 46.8493 26.1358 51.766 29.9991 55.2221C35.8306 60.4301 44.1672 59.1291 49.531 54.2204C50.9689 52.9047 51.8413 51.1005 51.9705 49.1755C52.0997 47.2504 51.476 45.3495 50.2264 43.8601L46.8105 39.7895C45.7802 38.5585 44.3982 37.6582 42.8422 37.2045C41.2863 36.7507 39.6275 36.7643 38.0795 37.2433L32.435 38.9873C30.9773 37.511 29.6999 35.8731 28.6286 34.1065C27.5946 32.3201 26.7888 30.4154 26.2293 28.4356" fill="#BBBB88"/>
</svg>
