<svg width="76" height="76" viewBox="0 0 76 76" fill="none" xmlns="http://www.w3.org/2000/svg">
<path fill-rule="evenodd" clip-rule="evenodd" d="M16.0378 63.391C13.5457 63.391 11.1558 62.4011 9.39367 60.6389C7.63155 58.8768 6.6416 56.4869 6.6416 53.9948V22.6743C6.6416 20.1823 7.63155 17.7924 9.39367 16.0303C11.1558 14.2681 13.5457 13.2782 16.0378 13.2782H59.8864C62.3785 13.2782 64.7684 14.2681 66.5305 16.0303C68.2927 17.7924 69.2826 20.1823 69.2826 22.6743V53.9948C69.2826 56.4869 68.2927 58.8768 66.5305 60.6389C64.7684 62.4011 62.3785 63.391 59.8864 63.391H16.0378ZM24.2594 26.4955C23.9403 26.223 23.5698 26.0175 23.1698 25.891C22.7698 25.7645 22.3484 25.7197 21.9307 25.7591C21.5131 25.7986 21.1076 25.9216 20.7383 26.1208C20.3691 26.3201 20.0437 26.5914 19.7813 26.9188C19.519 27.2462 19.3251 27.623 19.2112 28.0267C19.0972 28.4305 19.0656 28.8531 19.1181 29.2693C19.1706 29.6855 19.3062 30.087 19.5169 30.4498C19.7275 30.8126 20.0089 31.1295 20.3443 31.3814L32.0895 40.7807C33.756 42.115 35.8272 42.842 37.9621 42.842C40.097 42.842 42.1682 42.115 43.8347 40.7807L55.5799 31.3846C55.9011 31.1275 56.1686 30.8097 56.367 30.4493C56.5654 30.0888 56.6908 29.6929 56.7362 29.2839C56.7816 28.875 56.746 28.4612 56.6314 28.066C56.5168 27.6709 56.3255 27.3021 56.0685 26.9809C55.8114 26.6597 55.4936 26.3922 55.1332 26.1938C54.7727 25.9954 54.3768 25.87 53.9678 25.8246C53.5589 25.7792 53.1451 25.8148 52.7499 25.9294C52.3548 26.044 51.986 26.2353 51.6648 26.4923L39.9196 35.8885C39.3641 36.3332 38.6737 36.5756 37.9621 36.5756C37.2505 36.5756 36.5601 36.3332 36.0046 35.8885L24.2594 26.4955Z" fill="#BBBB88"/>
</svg>
