<svg width="70" height="71" viewBox="0 0 70 71" fill="none" xmlns="http://www.w3.org/2000/svg">
<path d="M34.9054 6.37155C31.1019 6.37155 27.3357 7.1207 23.8217 8.57623C20.3078 10.0318 17.1149 12.1652 14.4255 14.8546C8.99384 20.2863 5.94238 27.6531 5.94238 35.3346C5.94238 48.1363 14.2548 58.9974 25.7531 62.8495C27.2013 63.0812 27.6647 62.1833 27.6647 61.4013V56.5066C19.6419 58.2444 17.9331 52.6255 17.9331 52.6255C16.6008 49.2658 14.7182 48.368 14.7182 48.368C12.0825 46.5723 14.9209 46.6302 14.9209 46.6302C17.8172 46.8329 19.3523 49.6134 19.3523 49.6134C21.8721 54.0158 26.1296 52.7124 27.7805 52.0173C28.0412 50.1347 28.7942 48.8603 29.6052 48.1363C23.1754 47.4122 16.427 44.9214 16.427 33.8864C16.427 30.6715 17.5276 28.0938 19.4102 26.0375C19.1206 25.3134 18.1069 22.3012 19.6998 18.3912C19.6998 18.3912 22.1327 17.6092 27.6647 21.3454C29.9527 20.7083 32.4436 20.3897 34.9054 20.3897C37.3673 20.3897 39.8581 20.7083 42.1462 21.3454C47.6781 17.6092 50.111 18.3912 50.111 18.3912C51.704 22.3012 50.6903 25.3134 50.4007 26.0375C52.2832 28.0938 53.3838 30.6715 53.3838 33.8864C53.3838 44.9503 46.6065 47.3832 40.1477 48.1073C41.1904 49.0051 42.1462 50.7719 42.1462 53.4655V61.4013C42.1462 62.1833 42.6096 63.1101 44.0867 62.8495C55.585 58.9684 63.8685 48.1363 63.8685 35.3346C63.8685 31.5311 63.1193 27.7649 61.6638 24.2509C60.2083 20.737 58.0749 17.5441 55.3854 14.8546C52.6959 12.1652 49.5031 10.0318 45.9891 8.57623C42.4751 7.1207 38.7089 6.37155 34.9054 6.37155Z" fill="#BBBB88"/>
</svg>
