<svg width="70" height="71" viewBox="0 0 70 71" fill="none" xmlns="http://www.w3.org/2000/svg">
<path d="M55.2549 9.26785C56.7912 9.26785 58.2646 9.87814 59.3509 10.9645C60.4372 12.0508 61.0475 13.5242 61.0475 15.0605V55.6087C61.0475 57.145 60.4372 58.6184 59.3509 59.7047C58.2646 60.791 56.7912 61.4013 55.2549 61.4013H14.7067C13.1704 61.4013 11.697 60.791 10.6107 59.7047C9.52435 58.6184 8.91406 57.145 8.91406 55.6087V15.0605C8.91406 13.5242 9.52435 12.0508 10.6107 10.9645C11.697 9.87814 13.1704 9.26785 14.7067 9.26785H55.2549ZM53.8068 54.1606V38.8102C53.8068 36.306 52.812 33.9044 51.0413 32.1337C49.2706 30.363 46.869 29.3682 44.3648 29.3682C41.903 29.3682 39.0356 30.8743 37.6454 33.1334V29.9185H29.5647V54.1606H37.6454V39.8818C37.6454 37.6516 39.4411 35.827 41.6713 35.827C42.7467 35.827 43.778 36.2542 44.5385 37.0146C45.2989 37.775 45.7261 38.8064 45.7261 39.8818V54.1606H53.8068ZM20.1517 25.3713C21.4422 25.3713 22.6798 24.8587 23.5924 23.9461C24.5049 23.0336 25.0175 21.796 25.0175 20.5055C25.0175 17.812 22.8453 15.6108 20.1517 15.6108C18.8536 15.6108 17.6086 16.1265 16.6906 17.0444C15.7727 17.9623 15.257 19.2073 15.257 20.5055C15.257 23.1991 17.4582 25.3713 20.1517 25.3713ZM24.1776 54.1606V29.9185H16.1548V54.1606H24.1776Z" fill="#BBBB88"/>
</svg>
