<svg width="70" height="71" viewBox="0 0 70 71" fill="none" xmlns="http://www.w3.org/2000/svg">
<path d="M38.0349 6.37155C41.2932 6.38024 42.947 6.39762 44.3749 6.43817L44.9368 6.45844C45.5855 6.48161 46.2256 6.51057 46.9989 6.54533C50.0806 6.69014 52.1833 7.17672 54.0283 7.89211C55.9398 8.62777 57.5502 9.6241 59.1605 11.2316C60.6333 12.6794 61.7729 14.4308 62.5 16.3638C63.2154 18.2087 63.7019 20.3115 63.8467 23.396C63.8815 24.1664 63.9105 24.8065 63.9336 25.4582L63.951 26.0201C63.9945 27.4451 64.0118 29.0989 64.0176 32.3572L64.0205 34.5178V38.312C64.0276 40.4246 64.0054 42.5371 63.9539 44.6491L63.9365 45.211C63.9134 45.8627 63.8844 46.5027 63.8496 47.2732C63.7048 50.3577 63.2125 52.4575 62.5 54.3054C61.775 56.2395 60.6351 57.9913 59.1605 59.4376C57.7123 60.9099 55.961 62.0494 54.0283 62.7771C52.1833 63.4925 50.0806 63.979 46.9989 64.1239C46.3117 64.1562 45.6243 64.1852 44.9368 64.2107L44.3749 64.2281C42.947 64.2687 41.2932 64.289 38.0349 64.2947L35.8742 64.2976H32.083C29.9694 64.3049 27.8559 64.2827 25.743 64.231L25.1811 64.2136C24.4935 64.1876 23.8061 64.1577 23.1189 64.1239C20.0373 63.979 17.9345 63.4925 16.0867 62.7771C14.1539 62.0512 12.4032 60.9114 10.9573 59.4376C9.48325 57.9903 8.34263 56.2388 7.615 54.3054C6.89962 52.4604 6.41304 50.3577 6.26822 47.2732C6.23595 46.5859 6.20699 45.8985 6.18133 45.211L6.16685 44.6491C6.11348 42.5372 6.08934 40.4246 6.09444 38.312V32.3572C6.08636 30.2446 6.1076 28.1321 6.15816 26.0201L6.17844 25.4582C6.20161 24.8065 6.23057 24.1664 6.26533 23.396C6.41014 20.3115 6.89672 18.2116 7.61211 16.3638C8.33941 14.4288 9.48231 12.6769 10.9602 11.2316C12.4058 9.7587 14.1553 8.61905 16.0867 7.89211C17.9345 7.17672 20.0344 6.69014 23.1189 6.54533C23.8893 6.51057 24.5323 6.48161 25.1811 6.45844L25.743 6.44106C27.8549 6.3896 29.9675 6.3674 32.0801 6.37445L38.0349 6.37155ZM35.0575 20.8531C31.2167 20.8531 27.5333 22.3788 24.8175 25.0946C22.1017 27.8104 20.576 31.4939 20.576 35.3346C20.576 39.1753 22.1017 42.8588 24.8175 45.5746C27.5333 48.2904 31.2167 49.8161 35.0575 49.8161C38.8982 49.8161 42.5817 48.2904 45.2975 45.5746C48.0133 42.8588 49.539 39.1753 49.539 35.3346C49.539 31.4939 48.0133 27.8104 45.2975 25.0946C42.5817 22.3788 38.8982 20.8531 35.0575 20.8531ZM35.0575 26.6457C36.1985 26.6455 37.3284 26.87 38.3827 27.3065C39.437 27.743 40.3949 28.3829 41.2019 29.1896C42.0089 29.9963 42.649 30.954 43.0859 32.0082C43.5227 33.0623 43.7477 34.1921 43.7478 35.3331C43.748 36.4742 43.5235 37.6041 43.087 38.6584C42.6505 39.7126 42.0107 40.6706 41.2039 41.4776C40.3972 42.2845 39.4395 42.9247 38.3854 43.3615C37.3313 43.7984 36.2014 44.0233 35.0604 44.0235C32.7559 44.0235 30.5459 43.1081 28.9164 41.4786C27.2869 39.8491 26.3715 37.639 26.3715 35.3346C26.3715 33.0302 27.2869 30.8201 28.9164 29.1906C30.5459 27.5611 32.7559 26.6457 35.0604 26.6457M50.266 16.5086C49.3058 16.5086 48.3849 16.89 47.706 17.569C47.027 18.248 46.6456 19.1688 46.6456 20.129C46.6456 21.0892 47.027 22.01 47.706 22.689C48.3849 23.3679 49.3058 23.7494 50.266 23.7494C51.2262 23.7494 52.147 23.3679 52.826 22.689C53.5049 22.01 53.8864 21.0892 53.8864 20.129C53.8864 19.1688 53.5049 18.248 52.826 17.569C52.147 16.89 51.2262 16.5086 50.266 16.5086Z" fill="#BBBB88"/>
</svg>
